<?xml version="1.0" encoding="utf-8"?>
<!-- Generator: Adobe Illustrator 19.2.1, SVG Export Plug-In . SVG Version: 6.00 Build 0)  -->
<svg version="1.1" id="layer" xmlns="http://www.w3.org/2000/svg" xmlns:xlink="http://www.w3.org/1999/xlink" x="0px" y="0px"
	 viewBox="0 0 652 652" style="enable-background:new 0 0 652 652;" xml:space="preserve">
<style type="text/css">
	.st0{fill:#002453;}
	.st1{clip-path:url(#SVGID_2_);fill:url(#SVGID_3_);}
</style>
<path class="st0" d="M208.1,301.8c0.6,0.6,0.9,1.4,0.9,2.3l0,37.2c0,0.7,0,1.3-0.1,2c0,0.1,0,0.2,0,0.4l0,0.4c0,0.4-0.1,0.9-0.1,1.3
	c-1,9.9-5.4,18.6-12,25.1c0,0-0.1,0-0.1,0.1c-0.4,0.4-0.8,0.8-1.3,1.2c-0.1,0.1-0.1,0.1-0.2,0.2c-1.1,1-2.3,2-3.6,2.8
	c-0.2,0.2-0.4,0.3-0.7,0.5c-0.3,0.2-0.6,0.4-0.9,0.6c-0.2,0.1-0.4,0.3-0.7,0.4c-0.3,0.2-0.7,0.4-1,0.6c-0.2,0.1-0.4,0.2-0.6,0.3
	c-0.4,0.2-0.8,0.4-1.2,0.6c-0.2,0.1-0.3,0.2-0.5,0.3c-0.4,0.2-0.8,0.4-1.3,0.6c-0.1,0.1-0.3,0.1-0.4,0.2c-0.5,0.2-0.9,0.4-1.4,0.6
	c-0.1,0-0.2,0.1-0.3,0.1c-0.5,0.2-1,0.4-1.5,0.5c-0.1,0-0.2,0.1-0.3,0.1c-0.5,0.2-1.1,0.3-1.6,0.5c-0.1,0-0.1,0-0.2,0.1
	c-0.6,0.2-1.1,0.3-1.7,0.4l-0.1,0c-0.6,0.1-1.2,0.3-1.8,0.4c0,0,0,0-0.1,0c-0.6,0.1-1.2,0.2-1.8,0.3c0,0,0,0-0.1,0
	c-0.6,0.1-1.2,0.2-1.9,0.2c0,0-0.1,0-0.1,0c-0.6,0.1-1.2,0.1-1.8,0.1c-0.2,0-0.5,0-0.7,0c-0.4,0-0.8,0-1.3,0
	c-13.4,0-25.4-6.5-32.9-16.4l10.1-13.3c0.7-0.9,1.7-1.5,2.9-1.5c1.2,0,2.2,0.6,2.8,1.4c0.2,0.3,0.5,0.7,0.8,1.1h0
	c3.5,4.5,8.9,7.5,15,7.9c0.2,0,0.4,0,0.6,0l0.2,0c0.1,0,0.2,0,0.3,0c11.3-0.1,20.5-9.3,20.5-20.6l0-40.1h17.8
	C206.7,300.9,207.5,301.3,208.1,301.8 M295.3,300.9c6.4,5.2,11.5,11.9,14.9,19.6h17.3v60.7h20.9v-60.7h21.1v-19.6H295.3z
	 M261.8,382.4c22.8,0,41.3-18.5,41.3-41.3c0-22.8-18.5-41.3-41.3-41.3c-22.8,0-41.3,18.5-41.3,41.3
	C220.5,363.8,239,382.4,261.8,382.4 M261.8,320.5c11.3,0,20.6,9.2,20.6,20.6c0,11.3-9.2,20.6-20.6,20.6c-11.3,0-20.6-9.2-20.6-20.6
	C241.2,329.7,250.4,320.5,261.8,320.5 M501.9,382.4c22.8,0,41.3-18.5,41.3-41.3c0-22.8-18.5-41.3-41.3-41.3
	c-22.8,0-41.3,18.5-41.3,41.3C460.6,363.8,479.1,382.4,501.9,382.4 M501.9,320.5c11.3,0,20.6,9.2,20.6,20.6
	c0,11.3-9.2,20.6-20.6,20.6c-11.3,0-20.6-9.2-20.6-20.6C481.3,329.7,490.5,320.5,501.9,320.5 M440.9,381.5c0.3,0,4.2,0,8,0l5.1,0
	c0.7,0,3.2,0,3.2-1V380l-0.2-0.3c-3.6-4.7-7-9.2-10.3-13.5c-3-3.9-9.1-11.9-9.5-12.4c0.4-0.3,0.8-0.6,1.2-0.9
	c11.9-9.3,14.9-25.7,7.1-38.2c-5.6-9-14.6-13.6-26.7-13.7c-0.5,0-1,0-1.6,0l-36.2,0v80.3h20.9v-20.5c0.7,0,3.2,0,3.8,0
	c3.1,0,4.9-0.1,8.2,0.1c3.1,0.2,5,1.8,5.6,2.6c0.5,0.7,9.1,11.9,9.2,12.1C432.2,380,435.2,381.5,440.9,381.5 M401.9,337.3
	c0-5.7,0-9.3,0.1-14.7v-1.5c0-0.4,0.4-0.5,0.7-0.5h4.9c0,0,5.3,0,10.5,0c5.6,0,10.3,4.5,10.3,10.2c0,5.7-4.6,10.3-10.3,10.3
	s-14.4,0-16.1,0L401.9,337.3z M617.6,381.5c0.3,0,6.6,0,10.6,0l1.2,0v-80.5h-21v45.6c-1.1-1.5-2.5-3.5-4.2-5.8
	c-4.1-5.7-9.8-13.5-15.5-21L582,311c-0.4-0.5-0.8-1-1.2-1.5l-0.4-0.6c-0.8-1-1.6-2-2.3-3c-3.2-3.7-6-5-11.4-5c-0.3,0-7.1,0-11.2,0
	l-1.2,0v80.3h20.9v-45.5c3.1,4,13.3,17.5,21.3,28.1l5.8,7.6c0.4,0.5,0.8,1,1.2,1.5l1.6,2.1c0.1,0.2,0.2,0.3,0.4,0.5
	c2.5,3.1,4.8,5.2,9.1,5.8l0.3,0C615.7,381.4,616.6,381.5,617.6,381.5 M262.1,439.9h5.5v-9.3h6.6c5.6,0,8.7-3.8,8.7-8.3
	c0-4.5-3.1-8.3-8.7-8.3h-12.1V439.9z M273.5,418.7c2.2,0,3.8,1.4,3.8,3.6c0,2.2-1.6,3.6-3.8,3.6h-5.9v-7.1H273.5 M307.8,439.7h4.9
	v-12.4c0.8-1.2,3-2.1,4.6-2.1c0.5,0,1,0.1,1.4,0.2v-4.8c-2.3,0-4.7,1.3-6,3V421h-4.9V439.7z M325.8,439.7h5v-14.4h3.8V421h-3.8V420
	c0-1.8,0.9-2.7,2.3-2.7c0.6,0,1.2,0.1,1.6,0.4l1-3.5c-0.9-0.5-2.2-0.8-3.6-0.8c-3.7,0-6.3,2.4-6.3,6.5v1h-3.1v4.3h3.1V439.7z
	 M360.6,439.7h4.9v-12.4c0.8-1.2,3-2.1,4.6-2.1c0.5,0,1,0.1,1.4,0.2v-4.8c-2.3,0-4.7,1.3-6,3V421h-4.9V439.7z M399,439.7h5v-13.5
	c0-3.8-2.1-5.7-5.5-5.7c-2.9,0-5.4,1.7-6.4,3.4c-0.7-2.1-2.4-3.4-5.2-3.4c-2.9,0-5.4,1.8-6.1,2.9V421h-4.9v18.7h4.9v-12.6
	c0.7-1,2.2-2.2,3.9-2.2c2,0,2.8,1.2,2.8,3v11.8h5V427c0.7-1,2.1-2.2,3.9-2.2c2,0,2.8,1.2,2.8,3V439.7z M443,439.7h4.9v-13.2
	c0-3.6-2-6-6.1-6c-3.1,0-5.4,1.5-6.6,2.9V421h-4.9v18.7h4.9v-12.6c0.8-1.1,2.3-2.2,4.3-2.2c2.1,0,3.5,0.9,3.5,3.5V439.7z
	 M506.8,439.9h5v-14.4h3.8v-4.3h-3.8v-0.9c0-1.8,0.9-2.7,2.3-2.7c0.6,0,1.2,0.1,1.6,0.4l1-3.5c-0.9-0.5-2.2-0.8-3.6-0.8
	c-3.7,0-6.3,2.4-6.3,6.5v1h-3.1v4.3h3.1V439.9z M541,439.9h4.9v-12.4c0.8-1.2,3-2.1,4.6-2.1c0.5,0,1,0.1,1.4,0.2v-4.8
	c-2.3,0-4.7,1.3-6,3v-2.6H541V439.9z M566.9,439.9h16.4V435h-10.9v-21h-5.5V439.9z M587.1,415.4c0,1.6,1.4,2.9,2.9,2.9
	c1.6,0,2.9-1.3,2.9-2.9s-1.3-2.9-2.9-2.9C588.5,412.5,587.1,413.8,587.1,415.4 M587.6,439.9h4.9v-18.7h-4.9V439.9z M599.2,439.9h5
	v-14.4h3.8v-4.3h-3.8v-0.9c0-1.8,0.9-2.7,2.3-2.7c0.6,0,1.2,0.1,1.6,0.4l1-3.5c-0.9-0.5-2.2-0.8-3.6-0.8c-3.7,0-6.3,2.4-6.3,6.5v1
	h-3.1v4.3h3.1V439.9z M347,440.2c5.4,0,9.9-4.4,9.9-9.9s-4.4-9.9-9.9-9.9c-5.4,0-9.9,4.4-9.9,9.9S341.6,440.2,347,440.2 M347,425.1
	c2.9,0,5.3,2.4,5.3,5.3s-2.4,5.3-5.3,5.3c-2.9,0-5.3-2.4-5.3-5.3S344.1,425.1,347,425.1 M527.4,440.4c5.4,0,9.9-4.4,9.9-9.9
	c0-5.4-4.4-9.9-9.9-9.9c-5.4,0-9.9,4.4-9.9,9.9C517.5,436,522,440.4,527.4,440.4 M527.4,425.2c2.9,0,5.3,2.4,5.3,5.3
	s-2.4,5.3-5.3,5.3c-2.9,0-5.3-2.4-5.3-5.3S524.5,425.2,527.4,425.2 M417,420.5c4.3,0,8.2,1.7,8.2,7.1v12.1h-4.9v-1.9
	c-1.3,1.5-3.5,2.4-5.9,2.4c-3,0-6.5-2-6.5-6.2c0-4.4,3.5-6,6.5-6c2.5,0,4.7,0.8,5.9,2.3v-2.6c0-1.9-1.6-3.1-4.1-3.1
	c-1.8,0-3.6,0.6-5,1.8l-2.3-3C411.1,421.4,414.1,420.5,417,420.5 M420.2,432.9c-0.8-1.1-2.4-1.6-4-1.6c-1.9,0-3.5,1-3.5,2.8
	c0,1.7,1.6,2.8,3.5,2.8c1.6,0,3.1-0.5,4-1.6V432.9z M461.5,435.7c-2.9,0-5.3-2.4-5.3-5.3c0-2.9,2.4-5.3,5.3-5.3
	c1.5,0,2.9,0.7,3.9,1.7l2.8-3.7c-1.8-1.6-4.1-2.6-6.7-2.6c-5.4,0-9.9,4.4-9.9,9.9c0,5.4,4.4,9.9,9.9,9.9c2.6,0,5-1,6.7-2.7l-2.8-3.7
	C464.4,435,463,435.7,461.5,435.7 M486.2,434.6c0.6,0.7,1.7,2.2,2.3,3.1c-1.9,1.7-4.8,2.6-7.7,2.6c-5.7,0-10-3.8-10-9.9
	c0-5.4,4-9.8,9.7-9.8c5.6,0,9.4,4.2,9.4,10.3v1.1h-13.9c0.3,2.4,2.2,4.3,5.4,4.3C483,436.3,484.9,435.6,486.2,434.6 M480.5,424.4
	c-3.1,0-4.4,2.3-4.6,4.2h9.2C485,426.8,483.7,424.4,480.5,424.4 M625.6,434.7c0.6,0.7,1.7,2.2,2.3,3.1c-1.9,1.7-4.8,2.6-7.7,2.6
	c-5.7,0-10-3.8-10-9.9c0-5.4,4-9.8,9.7-9.8c5.6,0,9.4,4.2,9.4,10.3v1.1h-13.9c0.3,2.4,2.2,4.3,5.4,4.3
	C622.5,436.5,624.4,435.8,625.6,434.7 M619.9,424.6c-3.1,0-4.4,2.3-4.6,4.2h9.2C624.4,427,623.2,424.6,619.9,424.6 M300.2,434.9
	c0.6,0.7,1.7,2.2,2.3,3.1c-1.9,1.7-4.8,2.6-7.7,2.6c-5.7,0-10-3.8-10-9.9c0-5.4,4-9.8,9.7-9.8c5.6,0,9.4,4.2,9.4,10.3v1.1H290
	c0.3,2.4,2.2,4.3,5.4,4.3C297.1,436.6,299,436,300.2,434.9 M294.5,424.8c-3.1,0-4.4,2.3-4.6,4.2h9.2
	C299,427.1,297.8,424.8,294.5,424.8"/>
<g>
	<defs>
		<path id="SVGID_1_" d="M29.5,313.1c8.8,12.7,22.1,22.1,37.4,26c0.1,0,0.3,0.1,0.4,0.1c0.4,0.1,0.8,0.2,1.1,0.3
			c0.4,0.1,0.8,0.2,1.2,0.3c0.1,0,0.1,0,0.2,0c4.2,0.9,8.6,1.3,13.1,1.3c16,0,30.6-5.7,42-15.3c0.1-0.1,0.2-0.3,0.1-0.4
			c0-0.1-0.1-0.1-0.2-0.1c0,0-0.1,0-0.2,0.1c-4.4,1.7-9.9,2.6-16.2,2.6c-4.8,0-10-0.5-15.5-1.5c-0.2,0-0.4-0.1-0.6-0.1
			c-0.4-0.1-0.8-0.1-1.2-0.2c-19-3.5-38.8-12.5-53.1-24L29.5,313.1z M29.3,275.8c13.5,16.3,41.4,31.5,68.8,36.6
			c22,4.1,38.2,0.5,43.8-8.2c2.8-5.7,4.7-11.8,5.8-18.2c0-0.3,0-0.4-0.2-0.5c-0.1,0-0.3,0-0.4,0.2c0,0.1-0.1,0.1-0.1,0.2
			c-0.1,0.2-0.2,0.3-0.3,0.5c-0.1,0.1-0.1,0.2-0.2,0.3c0,0.1-0.1,0.2-0.1,0.2c-5.3,8.5-20.9,12-42.3,8.1
			c-25.1-4.6-50.7-18.2-64.3-33L29.3,275.8z M58.2,256.9c12.9,10.2,31.4,18.8,49.6,22.2c25,4.6,41.2-2.1,39.7-15.2
			c-0.4-2-0.8-3.9-1.3-5.8c-0.1-0.2-0.1-0.5-0.2-0.7c-0.9-3.2-2.1-6.3-3.5-9.3c-0.2-0.3-0.3-0.7-0.5-1c0-0.1-0.1-0.2-0.1-0.3h0
			c-0.1-0.2-0.3-0.5-0.5-0.4c-0.1,0-0.2,0.1-0.1,0.4c0,0,0,0.1,0,0.2c2.8,11.6-10.4,17.7-31.3,13.8c-15.1-2.8-30.3-10-40.6-18.5
			L58.2,256.9z M115.3,218.6c-0.1,0-0.2,0-0.2,0.1c-0.3,0.2-0.2,0.6,0,0.9c0.5,0.8,4.4,5.2,3.1,8.5c-0.1,0.3-0.3,0.6-0.5,0.8
			c0,0,0,0,0,0c0,0,0,0,0,0c-1.4,1.7-4.8,2.3-9.3,1.5c-2.7-0.5-5.3-1.4-7.8-2.6c-0.1-0.1-0.2-0.1-0.2-0.1c-0.6-0.3-2.5-1.3-3.1-1.3
			c-0.9,0-1.9,1.1-2.5,1.9c0,0-0.1,0.1-0.1,0.1c-0.2,0.3-0.4,0.5-0.6,0.8c-1.6,2.1-4,5.2-6,7.9c6.5,3.9,14.4,7.1,22.2,8.5
			c16.1,3,25.7-2.4,21.5-11.9c-1.2-2.6-3.2-5.3-6-7.9c-3-2.5-6.2-4.8-9.5-6.8C115.9,218.8,115.6,218.6,115.3,218.6
			C115.3,218.6,115.3,218.6,115.3,218.6"/>
	</defs>
	<clipPath id="SVGID_2_">
		<use xlink:href="#SVGID_1_"  style="overflow:visible;"/>
	</clipPath>
	
		<linearGradient id="SVGID_3_" gradientUnits="userSpaceOnUse" x1="45.4602" y1="749.4737" x2="48.9103" y2="749.4737" gradientTransform="matrix(-14.6649 -25.4003 -25.4003 14.6649 19822.0391 -9505.543)">
		<stop  offset="0" style="stop-color:#002452"/>
		<stop  offset="7.112534e-002" style="stop-color:#002757"/>
		<stop  offset="0.155" style="stop-color:#012E65"/>
		<stop  offset="0.2453" style="stop-color:#023B7D"/>
		<stop  offset="0.3396" style="stop-color:#034C9E"/>
		<stop  offset="0.35" style="stop-color:#034EA2"/>
		<stop  offset="0.4857" style="stop-color:#0262AD"/>
		<stop  offset="0.75" style="stop-color:#0092C8"/>
		<stop  offset="0.7982" style="stop-color:#0A96C9"/>
		<stop  offset="0.881" style="stop-color:#26A1CC"/>
		<stop  offset="0.9879" style="stop-color:#52B2D1"/>
		<stop  offset="1" style="stop-color:#58B4D2"/>
	</linearGradient>
	<polygon class="st1" points="59.2,392.9 -23.7,249.2 119.1,166.8 202,310.5 	"/>
</g>
</svg>
