<?xml version="1.0" encoding="utf-8"?>
<!-- Generator: Adobe Illustrator 19.2.1, SVG Export Plug-In . SVG Version: 6.00 Build 0)  -->
<svg version="1.1" id="layer" xmlns="http://www.w3.org/2000/svg" xmlns:xlink="http://www.w3.org/1999/xlink" x="0px" y="0px"
	 viewBox="0 0 652 652" style="enable-background:new 0 0 652 652;" xml:space="preserve">
<style type="text/css">
	.st0{fill:#194686;}
</style>
<g>
	<path class="st0" d="M74,277.3c0.8-1.7,1.9-3.5,3.5-5.1c1.6-1.6,3.4-2.8,5.1-3.5c-1.7-0.7-3.5-1.9-5.1-3.5
		c-1.6-1.6-2.8-3.4-3.5-5.1c-0.7,1.7-1.9,3.5-3.5,5.1c-1.6,1.6-3.4,2.8-5.1,3.5c1.7,0.7,3.5,1.9,5.1,3.5
		C72.1,273.8,73.3,275.5,74,277.3"/>
	<path class="st0" d="M44.4,279.8v1.5c0,0-16.9,13.1-16.9,32.9c0,19.9,19.5,31.9,39.6,31.9c20,0,62.7-16.9,62.7-50.8
		c0-32.1-39-31.6-41.2-31.6l-1.3-1.5c0,0,49.2-3.1,49.2,35.7c0,38.9-44.4,59.9-69.4,59.9c-25,0-45.1-14.2-45.1-36.4
		C22,299.3,38.1,284.9,44.4,279.8"/>
	<polygon class="st0" points="97.7,274.2 76.5,312.2 54.8,274.2 49.6,274.1 48,328.9 58.5,328.9 58.7,300.8 74.2,329.4 78.2,329.4 
		93.6,300.4 93.8,329 104.4,329 102.9,274.2 	"/>
	<path class="st0" d="M155.3,280.9h9.8v6c3.1-4.6,8-7.4,14-7.4c10.2,0,14.3,7.2,15.4,9.1c5.5-8.6,13.2-9.1,17-9.1
		c16.8,0,18.4,14,18.4,22.1v35.8h-9.8v-34.3c0-6.4-0.8-14.9-10.1-14.9c-11.3,0-12.5,10.9-12.5,17.7v31.5h-9.8v-33.5
		c0-4,0.1-15.7-10.2-15.7c-11.2,0-12.4,11.6-12.4,18.4v30.8h-9.8V280.9z"/>
	<path class="st0" d="M291.5,296.7c-5.2-6.5-12.7-8.4-17.7-8.4c-10.5,0-20,7.4-20,21.1c0,13.8,9.8,21,19.9,21
		c5.9,0,13.1-2.6,18.3-8.9v11.7c-6.1,4.5-12.7,5.9-18,5.9c-17.6,0-30.2-12.5-30.2-29.6c0-17.3,12.8-30,30.2-30
		c9,0,14.8,3.5,17.6,5.4V296.7z"/>
	<path class="st0" d="M305.5,280.9h9.8v6c3.1-4.6,8-7.4,14-7.4c10.2,0,14.3,7.2,15.4,9.1c5.4-8.6,13.2-9.1,17-9.1
		c16.8,0,18.4,14,18.4,22.1v35.8h-9.8v-34.3c0-6.4-0.8-14.9-10.1-14.9c-11.3,0-12.5,10.9-12.5,17.7v31.5H338v-33.5
		c0-4,0.1-15.7-10.2-15.7c-11.2,0-12.4,11.6-12.4,18.4v30.8h-9.8V280.9z"/>
	<path class="st0" d="M407.3,313.9c0,4,0,8.6,2.7,12.1c1.5,1.9,4.5,4.4,9.9,4.4c5.5,0,8.4-2.4,9.9-4.4c2.7-3.5,2.7-8.2,2.7-12.1v-33
		h9.8V315c0,6.9-0.7,12.1-5.2,17c-5,5.3-11.7,7.1-17.3,7.1c-5.6,0-12.3-1.8-17.3-7.1c-4.5-4.9-5.2-10.1-5.2-17v-34.1h9.8V313.9z"/>
	<path class="st0" d="M459.6,280.9h9.8v6.1c1-1.5,5.2-7.5,12.8-7.5c3,0,6.3,1.1,8.7,2.3l-4.6,8.9c-2.2-1.5-4.2-1.9-5.7-1.9
		c-4,0-6.4,1.6-7.9,3.5c-1.6,2.2-3.3,6-3.3,15.3v29.8h-9.8V280.9z"/>
	<path class="st0" d="M501.8,309.1c0,12.1,6.8,21.3,18.5,21.3c12,0,18.8-9.9,18.8-21.1c0-14.6-10.1-21-18.8-21
		C510.7,288.3,501.8,295.4,501.8,309.1 M538.6,248.5h9.8v89h-9.8v-7.9c-3.3,4.2-9.4,9.5-19.3,9.5c-14.3,0-27.5-10.1-27.5-30
		c0-19.5,13.1-29.6,27.5-29.6c10.9,0,16.8,6,19.3,9.4V248.5z"/>
	<path class="st0" d="M572.1,309.4c0,13.9,9.8,21,19.9,21c10.2,0,19.9-7.2,19.9-21c0-13.9-9.5-21.1-19.9-21.1
		C581.6,288.3,572.1,295.6,572.1,309.4 M562,309.4c0-17.2,12.7-29.8,30-29.8c17.3,0,30,12.7,30,29.8c0,17.2-12.8,29.7-30,29.7
		C574.8,339.1,562,326.6,562,309.4"/>
	<path class="st0" d="M299.5,392.2c3.5,0,6.3-1.7,7.7-3.8v-6.6c-5.5,0.2-12.6,1.4-12.6,6.3C294.6,390.6,296.5,392.2,299.5,392.2
		 M307.2,380v-4.4c0-2.8-1.7-4.9-5.5-4.9c-2.7,0-5.6,1.1-7.8,2.2l-1.1-2.2c2.4-1.2,5.8-2.3,9-2.3c5.8,0,8.2,3.1,8.2,7.2v13.3
		c0,1.9,1,2.9,2.6,2.9v2c-2.9,0-4.5-1.2-5.1-3.4c-1.8,2.2-4.9,3.9-8.5,3.9c-4.2,0-7.1-2.4-7.1-6.1C291.9,381.9,300,380.3,307.2,380"
		/>
	<path class="st0" d="M318.4,369h2.4l0.2,3.7c2.2-2.4,5.3-4.3,9.1-4.3c5.6,0,7.7,3.4,7.7,8.3v17.1h-2.7v-17.2c0-3.6-1.4-6-5.5-6
		c-3.5,0-6.3,1.7-8.6,4.5v18.7h-2.7V369z"/>
	<path class="st0" d="M373.9,391.9c7.8,0,13.9-5.8,13.9-15.4c0-9.1-6.2-14.9-13.9-14.9c-7.7,0-13.9,5.8-13.9,14.9
		C360,386.2,366.1,391.9,373.9,391.9 M373.9,359.2c9.3,0,16.7,6.8,16.7,17.3c0,11-7.3,17.8-16.7,17.8c-9.4,0-16.7-6.8-16.7-17.8
		C357.2,366,364.6,359.2,373.9,359.2"/>
	<path class="st0" d="M397.6,369h2.4l0.3,4.3c1.9-3.3,4.6-4.9,7.8-4.9c1.2,0,2.2,0.1,3,0.4l-0.5,2.6c-0.8-0.2-1.8-0.4-2.8-0.4
		c-3,0-5.5,1.8-7.5,5.2v17.7h-2.7V369z"/>
	<path class="st0" d="M425.3,392.2c5.3,0,8.8-4.4,8.8-11.1c0-6.3-3.7-10.4-8.8-10.4c-5.2,0-8.9,4.1-8.9,10.4
		C416.3,387.8,419.8,392.2,425.3,392.2 M425.3,368.4c6.7,0,11.6,5,11.6,12.7c0,8.2-4.7,13.3-11.6,13.3c-7,0-11.7-5.2-11.7-13.3
		C413.6,373.4,418.6,368.4,425.3,368.4"/>
	<rect x="443.9" y="357.1" class="st0" width="2.7" height="36.7"/>
	<path class="st0" d="M455.1,393.8h2.7v-24.7h-2.7V393.8z M455.1,361.8h2.7v-3.9h-2.7V361.8z"/>
	<path class="st0" d="M472.2,392.2c3.5,0,6.3-1.7,7.7-3.8v-6.6c-5.5,0.2-12.6,1.4-12.6,6.3C467.3,390.6,469.2,392.2,472.2,392.2
		 M479.9,380v-4.4c0-2.8-1.6-4.9-5.5-4.9c-2.7,0-5.6,1.1-7.8,2.2l-1.1-2.2c2.4-1.2,5.8-2.3,9-2.3c5.8,0,8.2,3.1,8.2,7.2v13.3
		c0,1.9,1,2.9,2.6,2.9v2c-2.9,0-4.5-1.2-5.1-3.4c-1.8,2.2-4.9,3.9-8.5,3.9c-4.2,0-7.1-2.4-7.1-6.1
		C464.6,381.9,472.7,380.3,479.9,380"/>
	<path class="st0" d="M514.2,392.1c5.2,0,7.9-4.4,7.9-11.1c0-6.4-3-10.4-8-10.4c-3.2,0-5.6,1.7-7.7,4.2V388
		C508.5,390.5,511.2,392.1,514.2,392.1 M503.7,357.1h2.7v15.3c2.1-2.2,4.8-4,8.2-4c6.1,0,10.2,4.8,10.2,12.6
		c0,8.3-3.7,13.4-10.2,13.4c-3.3,0-6.1-1.7-8.3-4.1l-0.3,3.5h-2.3V357.1z"/>
	<path class="st0" d="M531.7,369h2.4l0.3,4.3c1.9-3.3,4.6-4.9,7.8-4.9c1.2,0,2.2,0.1,3,0.4l-0.5,2.6c-0.8-0.2-1.8-0.4-2.8-0.4
		c-3,0-5.5,1.8-7.5,5.2v17.7h-2.7V369z"/>
	<path class="st0" d="M555.7,392.2c3.5,0,6.3-1.7,7.7-3.8v-6.6c-5.5,0.2-12.6,1.4-12.6,6.3C550.8,390.6,552.7,392.2,555.7,392.2
		 M563.4,380v-4.4c0-2.8-1.7-4.9-5.5-4.9c-2.7,0-5.6,1.1-7.8,2.2l-1.1-2.2c2.4-1.2,5.8-2.3,9-2.3c5.8,0,8.2,3.1,8.2,7.2v13.3
		c0,1.9,1,2.9,2.6,2.9v2c-2.9,0-4.5-1.2-5.1-3.4c-1.8,2.2-4.9,3.9-8.5,3.9c-4.2,0-7.1-2.4-7.1-6.1
		C548.1,381.9,556.2,380.3,563.4,380"/>
	<path class="st0" d="M574.6,369h2.4l0.2,3.7c2.2-2.4,5.3-4.3,9.1-4.3c5.6,0,7.7,3.4,7.7,8.3v17.1h-2.7v-17.2c0-3.6-1.4-6-5.5-6
		c-3.4,0-6.3,1.7-8.6,4.5v18.7h-2.7V369z"/>
	<path class="st0" d="M619.3,388v-13.2c-2.2-2.4-4.6-4.2-7.7-4.2c-5,0-8,4-8,10.4c0,6.8,2.8,11.1,8,11.1
		C614.5,392.1,617.1,390.5,619.3,388 M600.9,381c0-7.9,4-12.6,10.2-12.6c3.4,0,6.1,1.8,8.2,4v-15.3h2.7v36.7h-2.2l-0.3-3.5
		c-2.2,2.4-5,4.1-8.4,4.1C604.6,394.4,600.9,389.3,600.9,381"/>
</g>
</svg>
