<?xml version="1.0" encoding="utf-8"?>
<!-- Generator: Adobe Illustrator 19.2.1, SVG Export Plug-In . SVG Version: 6.00 Build 0)  -->
<svg version="1.1" id="layer" xmlns="http://www.w3.org/2000/svg" xmlns:xlink="http://www.w3.org/1999/xlink" x="0px" y="0px"
	 viewBox="0 0 652 652" style="enable-background:new 0 0 652 652;" xml:space="preserve">
<style type="text/css">
	.st0{fill:#9FA0A0;}
	.st1{fill:#E60012;}
	.st2{fill:#231815;}
</style>
<g>
	<path class="st0" d="M20.8,339.2c0,27.7,22.5,50.2,50.2,50.2c27.7,0,50.2-22.5,50.2-50.2c0-27.7-22.5-50.2-50.2-50.2
		C43.4,289,20.8,311.5,20.8,339.2 M43.9,339.2c0-15,12.2-27.2,27.2-27.2c15,0,27.2,12.2,27.2,27.2c0,15-12.2,27.2-27.2,27.2
		C56.1,366.4,43.9,354.2,43.9,339.2"/>
	<path class="st1" d="M111.1,274.2c-0.2-0.3-0.2-0.8-0.4-1.2c-0.2-0.4-0.7-0.6-1-1c-0.2-0.4-0.6-0.7-0.9-1.1
		c-0.3-0.4-0.1-1.1-0.4-1.5c-0.3-0.3-0.5-0.7-0.8-1c-0.3-0.4-0.8-0.7-1.1-1.1c-0.3-0.3-1.3-0.1-1.6-0.5c-0.3-0.3-0.3-1-0.6-1.3
		c-0.4-0.3-0.6-0.9-1.1-1.2c-0.3-0.3-1.2,0-1.5-0.3c-0.4-0.3-0.7-0.9-1.1-1.2c-0.4-0.3-0.7-0.9-1.2-1.2c-0.4-0.3-1.1-0.2-1.6-0.5
		c-0.5-0.3-0.7-1-1.1-1.3c-0.5-0.3-0.9-0.6-1.4-0.9c-0.5-0.2-1.1-0.2-1.6-0.4c-0.3-0.2-0.6-0.6-0.9-0.8c-0.4-0.2-1.2,0.5-1.7,0.3
		c-0.4-0.2-0.6-0.9-1-1c-0.4-0.1-0.8-0.5-1.2-0.6c-0.5-0.2-1-0.1-1.5-0.3c-0.4-0.1-0.8-0.5-1.2-0.7c-0.4-0.1-1,0.2-1.4,0.1
		c-0.5-0.1-0.9-0.5-1.4-0.6c-0.5-0.1-1.1,0.4-1.6,0.3c-0.5-0.1-1-0.2-1.5-0.2c-0.5-0.1-1-0.4-1.5-0.4c-0.5,0-1,0.1-1.5,0.1
		c-0.5,0-1-0.3-1.5-0.3c-0.5,0-1-0.2-1.5-0.2c-0.5,0-1-0.1-1.5-0.1c-0.5,0-1,0-1.5,0c-0.4,0-0.8,0.4-1.1,0.6c0.4,0,0.9,0.3,1.3,0.3
		c0.5,0,1,0,1.5,0c0.5,0,1,0.1,1.5,0.1c0.5,0,1-0.3,1.5-0.2s0.9,0.6,1.4,0.6c0.5,0.1,1-0.2,1.5-0.1c0.4,0.1,0.9-0.3,1.3-0.2
		c0.5,0.1,0.8,0.6,1.3,0.7c0.5,0.1,1-0.3,1.5-0.2c0.5,0.1,0.9,0.4,1.3,0.5c0.4,0.1,0.9,0.1,1.4,0.2c0.4,0.1,0.7,0.9,1.1,1
		c0.4,0.1,1-0.1,1.4,0c0.5,0.2,1,0.3,1.4,0.5c0.5,0.2,0.8,0.6,1.3,0.8c0.5,0.2,0.7,0.8,1.2,0.9c0.4,0.2,1,0.1,1.4,0.3
		c0.4,0.2,0.8,0.6,1.2,0.8c0.5,0.2,1.2,0,1.6,0.2c0.4,0.2,0.7,0.8,1.1,1c0.4,0.3,0.8,0.6,1.2,0.8c0.4,0.3,0.7,0.7,1.1,1
		c0.4,0.3,1,0.3,1.4,0.6c0.4,0.3,0.8,0.7,1.1,1c0.4,0.3,0.8,0.6,1.2,0.9c0.3,0.3,0.9,0.3,1.2,0.6c0.4,0.3,0.6,0.8,1,1.2
		c0.4,0.4,0.3,1.2,0.6,1.6c0.4,0.4,1.1,0.4,1.4,0.7c0.4,0.4,0.3,1.1,0.6,1.5c0.3,0.4,1.3,0.3,1.5,0.6c0.4,0.5,0.2,1.3,0.4,1.6
		c0.6,0.8,1.3,1,1.3,1C111.5,274.9,111.3,274.6,111.1,274.2"/>
</g>
<g>
	<path class="st1" d="M69.3,254.9c0.1,0,0.2,0,0.3,0c0.1,0,0.2-0.1,0.3-0.1c-0.1,0-0.1,0-0.2,0C69.6,254.8,69.4,254.8,69.3,254.9"/>
	<path class="st1" d="M55.2,257.8c0.4,0,0.7,0.1,1,0c0.2-0.1,0.4-0.3,0.6-0.5c-0.1,0-0.2,0-0.3,0.1C56,257.6,55.6,257.7,55.2,257.8"
		/>
	<path class="st1" d="M68,254.6c-0.5,0.1-1,0.5-1.5,0.6c-0.5,0.1-1-0.1-1.6-0.1c-0.5,0.1-1.1-0.1-1.6,0c-0.5,0.1-1,0.3-1.5,0.4
		c-0.5,0.1-0.9,0.5-1.4,0.6c-0.3,0.1-0.5,0.2-0.7,0.4c0.3-0.1,0.7-0.2,1-0.3c0.5-0.1,1,0,1.5-0.1c0.5-0.1,1-0.2,1.5-0.3
		c0.5-0.1,1-0.2,1.5-0.3c0.5-0.1,1,0.3,1.5,0.2c0.5-0.1,0.9-0.6,1.5-0.6c0.3,0,0.7-0.2,1-0.3C68.9,254.8,68.4,254.6,68,254.6"/>
	<path class="st1" d="M57.5,256.8c-0.3,0.1-0.5,0.4-0.7,0.6c0.4-0.1,0.8-0.1,1.1-0.2c0.3-0.1,0.5-0.2,0.8-0.3
		C58.3,256.8,57.9,256.6,57.5,256.8"/>
	<path class="st1" d="M58.7,256.9c0.1,0,0.3,0,0.4,0c0.2-0.1,0.4-0.2,0.7-0.3c-0.2,0.1-0.3,0.1-0.5,0.1
		C59.1,256.7,58.9,256.8,58.7,256.9"/>
</g>
<g>
	<path class="st1" d="M72.8,350.7c-0.3,0.1-0.3,0.1,0.5,0v-0.2C73.2,350.6,73,350.7,72.8,350.7"/>
	<path class="st1" d="M73.3,351.8v-30c-0.4,0.1-1-0.1-1.3,0.1c-0.4,0.2-0.5,1.1-0.9,1.3c-0.4,0.2-0.9,0.4-1.4,0.6
		c-0.5,0.1-1.1-0.4-1.6-0.3c-0.5,0.1-0.9,0.7-1.3,0.8c-0.5,0.1-1-0.6-1.5-0.6c-0.5,0-1,0.5-1.5,0.5c-0.5,0-1,0.1-1.5,0
		c-0.5-0.1-0.9-0.4-1.4-0.5c-0.5-0.1-0.8-0.7-1.3-0.9c-0.4-0.1-0.8-0.3-1.2-0.5c-0.4-0.2-0.9-0.3-1.3-0.5c-0.4-0.2-1-0.2-1.4-0.4
		c-0.4-0.2-0.8-0.5-1.2-0.8c-0.4-0.3-0.5-0.9-0.9-1.2c-0.4-0.3-1-0.2-1.4-0.5c-0.3-0.3-0.9-0.5-1.2-0.8c-0.3-0.3-0.4-0.9-0.7-1.3
		c-0.3-0.4-0.9-0.5-1.2-0.9c-0.3-0.4-0.5-1-0.7-1.4c-0.3-0.4,0-1.2-0.3-1.6c-0.2-0.5-1-0.6-1.2-1.1c-0.2-0.4,0.2-1,0-1.4
		c-0.2-0.4-1-0.6-1.2-1.1c-0.2-0.4,0.4-1.1,0.3-1.6c-0.1-0.4-0.8-0.8-0.9-1.2c-0.1-0.5-0.4-0.9-0.4-1.3c-0.1-0.5,0.6-1,0.5-1.5
		c-0.1-0.5-0.7-0.9-0.7-1.4c0-0.5,0.1-1,0.2-1.5c0-0.5-0.4-1-0.3-1.5c0-0.5,0.6-0.9,0.7-1.4c0.1-0.5-0.3-1-0.2-1.5
		c0.1-0.5,0-1,0.1-1.5c0.1-0.5,1-0.8,1.1-1.2c0.1-0.5,0.4-0.9,0.5-1.4c0.2-0.5-0.3-1.2-0.2-1.6c0.2-0.5,0.7-0.9,0.9-1.3
		c0.2-0.5,0.5-0.9,0.7-1.4c0.2-0.5,0.9-0.7,1.1-1.1c0.3-0.4,0.5-0.9,0.8-1.3c0.3-0.4,0.4-0.9,0.7-1.3c0.3-0.4,0.3-1.2,0.6-1.6
		c0.4-0.4,0.7-0.8,1.1-1.2c0.3-0.3,0.7-0.4,1-0.7c0.3-0.3,0.8-0.5,1.2-0.8c0.3-0.3,0.6-0.7,1-1c0.4-0.3,0.7-0.8,1.1-1
		c0.4-0.3,1-0.2,1.5-0.4c0.4-0.2,0.8-0.5,1.3-0.7c0.4-0.2,0.8-0.5,1.3-0.6c0.5-0.2,1-0.1,1.5-0.3c0.5-0.2,0.9-0.4,1.4-0.5
		c0.5-0.2,0.9-0.2,1.4-0.3c0.5-0.1,0.9-0.7,1.4-0.8c0.5-0.1,1.1,0.3,1.5,0.3c0.5-0.1,1-0.5,1.5-0.5c0.5,0,1-0.3,1.4-0.3
		c0.5,0,1,0.5,1.4,0.5c0.5,0,1-0.1,1.4-0.1c0.5,0.1,1,0,1.5,0.1c0.6,0.1,1.1,0.2,1.6,0.3c0.6,0.1,1,0.6,1.4,0.7
		c1,0.3,1.6,0.3,1.6,0.3c0.5,0.2,0.8,0.6,1.2,0.8c0.5,0.2,1,0.3,1.5,0.5c0.5,0.2,0.9,0.5,1.4,0.7c0.5,0.2,1,0.4,1.5,0.7
		c0.5,0.3,0.9,0.8,1.3,1c0.7,0.4,1.4,0.3,1.6,0.5c0.3,0.2,0.8,0.4,1.3,0.7c0.7,0.5,0.9,0.9,0.9,0.9c0.1-0.2,0-0.5-0.2-1
		c-0.1-0.4-0.3-0.7-0.5-1.2c-0.2-0.4-0.3-0.8-0.6-1.2c-0.3-0.4-0.7-0.7-1-1.1c-0.3-0.4-0.2-1.1-0.6-1.4c-0.3-0.3-1-0.2-1.3-0.5
		c-0.4-0.3-0.7-0.6-1-0.9c-0.4-0.3-0.7-0.8-1.1-1c-0.2-0.1-0.4-0.2-0.6-0.3c0.2,0.1,0.4,0.1,0.5,0.2c0.4,0.2,0.7,0.5,1,0.7
		c0.4,0.3,0.6,0.8,1,1.1c0.4,0.2,1.2-0.3,1.6-0.1c0.5,0.2,0.9,0.6,1.5,0.9c0.5,0.2,0.9,0.6,1.4,0.9c0.5,0.3,1,0.7,1.5,1
		c-0.3-0.4-0.8-0.8-1.1-1.1c-0.3-0.3-0.4-0.9-0.8-1.2c-0.4-0.4-0.8-0.7-1.2-1c0.4,0,0.8,0.2,1.2,0.5c0.3,0.2,0.5,0.7,0.9,0.9
		c0.4,0.2,1.1,0.1,1.4,0.3c0.3,0.3,0.6,0.7,0.9,1c0.4,0.3,0.6,0.8,0.9,1.2c0.4,0.4,1,0.5,1.3,0.8c0.4,0.4,0.3,1.1,0.6,1.4
		c0.6,0.7,1.5,0.9,1.4,0.9c0-0.3-0.6-0.6-0.7-1c-0.1-0.4,0.2-1,0-1.5c-0.2-0.4-0.7-0.7-1-1.1c-0.3-0.4-0.9-0.5-1.3-0.9
		c-0.3-0.4-0.3-1.1-0.7-1.5c-0.3-0.3-0.6-0.7-1-1.1c-0.3-0.3-0.7-0.7-1-1c-0.4-0.3-0.7-0.7-1.1-1c-0.3-0.2-0.9-0.1-1.3-0.4
		c-0.3-0.2-0.4-0.9-0.8-1.1c-0.4-0.3-1-0.2-1.5-0.4c-0.4-0.2-0.9-0.2-1.3-0.4c-0.4-0.2-0.9-0.5-1.3-0.7c-0.4-0.2-0.6-0.9-1-1.1
		c-0.4-0.2-1,0.1-1.5-0.1c-0.5-0.2-0.9-0.4-1.4-0.6c-0.4-0.1-0.8-0.4-1.3-0.5c-0.5-0.1-0.9-0.4-1.3-0.5c-0.5-0.1-1.1,0.2-1.6,0.1
		c-0.5-0.1-1-0.1-1.5-0.2c-0.5-0.1-1,0-1.5-0.1c-0.5-0.1-1-0.2-1.5-0.2c-0.4,0-0.8,0-1.3,0c-0.5,0-0.9-0.1-1.4-0.1
		c-0.5,0-1-0.6-1.4-0.6c-0.5,0-0.9,0.2-1.4,0.2c-0.5,0-1,0-1.4,0.1c-0.5,0.1-0.9,0.2-1.4,0.3c-0.5,0.1-0.9,0.5-1.4,0.6
		c-0.5,0.1-0.9,0.6-1.3,0.7c-0.5,0.1-0.9,0.3-1.4,0.4c-0.5,0.1-1,0-1.5,0.1c-0.5,0.1-1,0.1-1.4,0.2c-0.5,0.2-1,0.2-1.5,0.4
		c-0.5,0.2-0.7,0.8-1.2,1c-0.5,0.2-1.2-0.1-1.7,0.1c-0.4,0.2-0.7,0.9-1.1,1.1c-0.5,0.2-0.8,0.6-1.2,0.8c-0.5,0.3-1,0.4-1.4,0.7
		c-0.5,0.3-0.8,0.7-1.2,1c-0.5,0.4-0.8,0.8-1.2,1.1c-0.8,0.6-1,0.7-1.1,0.7c0-0.3,0-0.6,0.3-1.1c0.2-0.4-0.2-1.2,0.1-1.6
		c0.3-0.4,0.7-0.7,1.1-1.1c0.3-0.4,1.2-0.2,1.6-0.6c0.3-0.3,0.7-0.6,1-1c0.4-0.3,0.4-1.2,0.9-1.6c0.4-0.3,1.2-0.2,1.7-0.6
		c0.4-0.3,0.8-0.6,1.2-0.9c0.5-0.3,1-0.5,1.5-0.8c0.3-0.2,0.3-1.1,0.7-1.3c0.4-0.2,1.1,0.2,1.5,0c0.4-0.2,0.6-0.9,1.1-1.1
		c0.4-0.2,0.8-0.4,1.2-0.6c0.4-0.2,0.9-0.2,1.3-0.3c0.5-0.2,1.1,0.2,1.6,0c0.5-0.1,0.9-0.4,1.4-0.5c0.5-0.1,1,0.2,1.5,0.1
		c0.5-0.1,0.8-1,1.3-1.1c0.5-0.1,1.1,0.4,1.6,0.4c0.5-0.1,1-0.1,1.5-0.2s1-0.6,1.5-0.7c0.5,0,1,0.7,1.5,0.7c0.5,0,1-0.3,1.5-0.3
		c0.5,0,1,0.2,1.5,0.2c0.5,0,1-0.5,1.5-0.5c0.5,0,0.9,0.6,1.4,0.7c0.4,0,0.9-0.4,1.3-0.4c0.5,0.1,0.8,0.8,1.3,0.9
		c0.5,0.1,0.9,0.1,1.4,0.2c0.5,0.1,0.9,0.2,1.4,0.3c0.4,0.1,0.9,0.2,1.3,0.3c0.5,0.1,1.1-0.3,1.6-0.1c0.5,0.2,0.9,0.5,1.4,0.6
		c0.5,0.2,0.9,0.4,1.4,0.6c0.5,0.2,0.9,0.3,1.4,0.5c0.4,0.2,0.9,0.3,1.3,0.5c0.4,0.2,0.7,0.8,1.1,1c0.4,0.2,0.8,0.6,1.2,0.9
		c0.4,0.3,1,0.3,1.4,0.6c0.4,0.3,0.7,0.7,1.1,0.9c0.4,0.3,0.8,0.6,1.2,0.9c0.4,0.3,1.2,0.1,1.5,0.4c0.3,0.3,0.7,0.5,1,0.8
		c0.4,0.3,0.9,0.6,1.2,0.9c0.4,0.3,0.4,1,0.7,1.3c0.4,0.4,0.9,0.5,1.2,0.9c0.4,0.4,0.7,0.7,1,1.1c0.4,0.4,0.7,0.7,0.9,1
		c-0.2-0.3-0.4-0.6-0.6-1c-0.2-0.4,0-1.2-0.3-1.6c-0.3-0.4-0.9-0.6-1.3-1.1c-0.3-0.4-0.4-1.1-0.8-1.6c-0.3-0.4-0.7-0.7-1.1-1.1
		c-0.3-0.3-1.2-0.2-1.6-0.6c-0.4-0.3-0.3-1.3-0.7-1.6c-0.4-0.3-1-0.4-1.5-0.7c-0.3-0.3-0.4-0.9-0.7-1.1c-0.3-0.3-0.7-0.5-1.1-0.7
		c-0.4-0.3-1.2,0.1-1.6-0.2c-0.4-0.2-0.5-0.9-0.9-1.1c-0.4-0.2-0.7-0.8-1.2-1c-0.4-0.2-1.1,0.2-1.5,0c-0.4-0.2-0.7-0.5-1.2-0.7
		c-0.5-0.2-1.1,0-1.6-0.2c-0.4-0.2-0.7-0.7-1.2-0.8c-0.5-0.2-0.9-0.6-1.3-0.8c-0.5-0.2-0.9-0.6-1.4-0.7c-0.5-0.2-1.2,0.4-1.7,0.2
		c-0.5-0.1-1-0.3-1.5-0.4c-0.5-0.1-0.9-0.7-1.4-0.8c-0.5-0.1-1.1,0.3-1.6,0.2c-0.5-0.1-0.9-0.8-1.5-0.8c-0.5-0.1-1,0-1.6-0.1
		c-0.5,0-1,0-1.6,0c-0.5,0-0.9,0.4-1.4,0.4c-0.5,0-0.9-0.7-1.4-0.7c-0.5,0-0.9,0.9-1.4,0.9c-0.5,0-0.9-0.2-1.4-0.1
		c-0.5,0-1-0.6-1.5-0.5c-0.5,0.1-0.9,0.7-1.5,0.8c-0.5,0.1-1-0.1-1.5-0.1c-0.5,0.1-0.9,0.6-1.4,0.7c-0.5,0.1-1.1-0.2-1.6-0.1
		c-0.5,0.1-0.9,0.3-1.4,0.5c-0.5,0.1-0.9,0.5-1.3,0.6c-0.5,0.1-0.9,0.3-1.4,0.5c-0.5,0.2-1.2-0.3-1.7-0.1c-0.5,0.2-0.8,0.9-1.2,1.1
		c-0.5,0.2-0.9,0.5-1.3,0.7c-0.5,0.2-1.2-0.2-1.6,0c-0.5,0.2-0.8,0.8-1.3,1c-0.5,0.2-1,0.3-1.4,0.6c-0.4,0.2-0.5,0.9-0.9,1.1
		c-0.4,0.3-1,0.3-1.4,0.6c-0.5,0.3-0.9,0.6-1.3,0.9c-0.4,0.3-1,0.3-1.4,0.6c-0.4,0.3-1,0.5-1.3,0.8c-0.5,0.3-0.8,0.9-1.1,1.2
		c-0.5,0.4-0.9,0.7-1.2,1c-0.8,0.7-1,1.1-1,1.1c0.1-0.2-0.1-0.8,0.2-1.3c0.2-0.3,0.7-0.5,1.1-0.8c0.3-0.3,0.5-0.8,0.9-1.2
		c0.3-0.3,1.2-0.1,1.6-0.4c0.3-0.3,0.4-0.9,0.7-1.2c0.3-0.3,0.8-0.5,1.2-0.8c0.4-0.3,0.9-0.5,1.4-0.8c0.4-0.3,0.8-0.5,1.2-0.7
		c0.4-0.2,0.5-0.9,0.9-1.1c0.4-0.3,1.1-0.1,1.6-0.4c0.5-0.3,0.9-0.5,1.4-0.8c0.3-0.2,0.6-0.6,1-0.7c0.4-0.2,0.7-0.8,1.1-1
		c0.4-0.2,1.1,0.3,1.5,0.1c0.4-0.2,0.7-0.9,1.1-1.1c0.1,0,0.1,0,0.2-0.1c-0.2,0-0.4,0-0.6,0.1c-0.5,0.2-1,0.1-1.5,0.3
		c-0.5,0.2-0.8,0.8-1.2,1c-0.5,0.2-0.9,0.4-1.4,0.7c-0.4,0.2-1,0.2-1.5,0.5c-0.4,0.3-0.7,0.9-1.1,1.2c-0.4,0.2-1.1-0.2-1.4,0
		c-0.4,0.2-0.4,1.2-0.8,1.5c-0.4,0.3-1.2-0.1-1.5,0.2c-0.4,0.3-0.8,0.5-1.1,0.8c-0.4,0.3-0.8,0.5-1.2,0.8c-0.4,0.3-0.3,1.1-0.7,1.4
		c-0.4,0.3-0.8,0.5-1.2,0.8c-0.3,0.3-1.1,0.2-1.5,0.5c-0.3,0.3-0.5,0.9-0.8,1.2c-0.3,0.3-0.8,0.6-1.1,0.9c-0.3,0.3-0.3,1.1-0.6,1.5
		c-0.3,0.4-0.9,0.6-1.2,0.9c-0.3,0.4-0.7,0.7-1.1,1.1c-0.3,0.4-0.8,0.6-1.1,1c-0.3,0.4-0.3,1-0.6,1.4c-0.3,0.4-0.2,1-0.5,1.5
		c-0.3,0.4-1.1,0.5-1.3,0.9c-0.3,0.4-0.4,0.9-0.7,1.3c-0.3,0.4-0.2,1-0.4,1.5c-0.2,0.4-0.4,0.9-0.6,1.3c-0.2,0.4-0.8,0.7-1,1.1
		c-0.2,0.4-0.3,0.9-0.5,1.4c-0.2,0.5-0.7,0.8-0.9,1.3c-0.2,0.5-0.3,1-0.5,1.4c-0.2,0.5,0.9-4.7,4-9.7c4.5-7.3,10-13,12.3-14.5
		l-3.2,2c0,0-15.1,10.2-17.6,34.4c-2.5,24.2,12.2,40.5,23.3,46.7C55.4,352.2,66,352.7,73.3,351.8"/>
</g>
<g>
	<path class="st2" d="M164.7,333.1H178c0,0,3.7-18.8-13.7-21.5c-17.4-2.7-25,7.8-24.2,17.6c0.7,9.8,8,15.2,14.3,18.7
		c6.3,3.5,12.3,4.1,11.4,12.1c-0.9,8-14.7,6.6-13.3-2.2v-6.5h-13.1v8.2c0,0-1,20.4,27.5,15.7c0,0,15.3-2.6,11.9-21.4
		c0,0-1.4-9.3-12.7-14.3c-11.3-5-12.9-7.6-12.8-12.7c0.1-5.1,10.3-7.1,11.3,0.2V333.1z"/>
	<polygon class="st2" points="179.4,374.9 193.2,374.9 205.2,334.5 215.1,375 229.1,375 212.6,312.7 198.2,312.7 	"/>
	<polygon class="st2" points="231.4,375.2 231.4,312.9 249.7,312.9 259.8,348.3 269.5,313 287,313 287,375.2 274,375.2 274,344.3 
		265.7,375.1 253.5,375.1 244.3,343.3 244.3,375.2 	"/>
	<polygon class="st2" points="289.9,312.7 304.8,312.7 313.9,333.1 323.6,312.6 337.4,312.6 320.5,348.6 320.5,375 306.9,375 
		306.9,348.8 	"/>
	<path class="st2" d="M339.9,312.6h14v47.1c0,0,0,5.3,6.5,5.3c0,0,5.1,0.2,5.3-5.5v-47h13.8v45.6c0,0,0.9,17.4-19.3,18.4
		c0,0-18.5,1.2-20.4-17.9V312.6z"/>
	<polygon class="st2" points="386.3,313.1 403.5,313.1 415.9,347.9 415.9,312.7 429,312.7 429,374.8 411.8,374.8 399.5,340.2 
		399.5,374.8 386.3,374.8 	"/>
	<path class="st2" d="M452.5,339.1h23v29.7c0,0-6.7,9.1-23.6,7.2c0,0-16-0.6-16-17.3v-32.9c0,0,0.6-14.3,20.4-14.4
		c0,0,17.8-1.5,19.4,14.7v6.8h-13.4V327c0,0,0-5-6.8-4.2c0,0-5.6-0.2-6.1,5.5v31.2c0,0-1.1,4.5,6.6,4.9c0,0,3.2,0.2,6.1-1.2v-12.7
		h-9.4V339.1z"/>
	<polygon class="st2" points="527.6,312.7 494.3,312.7 494.3,375 527.6,375 527.6,363.1 507.4,363.1 507.4,349.3 525.6,349.3 
		525.6,337.2 507.3,337.2 507.3,324.7 527.6,324.7 	"/>
</g>
<g>
	<polygon class="st2" points="534.2,313.1 551.6,313.1 563.9,347.9 563.9,312.8 576.9,312.8 576.9,374.8 559.8,374.8 547.6,340.3 
		547.6,374.8 534.2,374.8 	"/>
	<path class="st2" d="M607.4,333.6h13.3v-5.7c0,0,1.2-16.2-17.4-16.5c0,0-18.1-1.9-20.4,14.7v34.4c0,0,0.4,15.7,20.1,15.7
		c0,0,17.5,0.5,17.7-16.7v-8.2h-13.2v6.6c0,0,0.8,6-5.6,5.6c0,0-5,0.5-5.1-5.1l0.1-30.9c0,0-0.1-5.8,6.6-5c0,0,3.4,0,3.7,4.8
		L607.4,333.6z"/>
</g>
</svg>
