<svg xmlns="http://www.w3.org/2000/svg" xmlns:xlink="http://www.w3.org/1999/xlink" version="1.1" id="Calque_2" x="0px" y="0px" width="295.4195783503986" height="338.5016001931651" viewBox="0 0 336.02 385.455" enable-background="new 0 0 336.02 385.455" xml:space="preserve">
<g>
	<path fill="#706F6F" d="M139.58,69.492c0.301-0.104-0.351,0.107-0.011,0.004C139.592,69.488,139.588,69.489,139.58,69.492z"/>
	<path fill="#706F6F" d="M222.246,88.296c-5.637-8.53-14.754-15.387-24.574-18.801c-9.146-2.766-19.024-4.227-29.053-4.227   c-10.037,0-19.916,1.461-29.05,4.227c-9.826,3.414-18.932,10.271-24.563,18.801c-9.305,13.605-17.741,39.888-18.104,66.056v0.078   c0.363,26.168,8.801,52.448,18.104,66.046c5.632,8.539,14.736,15.366,24.563,18.785c9.135,2.75,18.803,4.25,28.834,4.25h0.216   h0.205c10.051,0,19.496-1.47,28.637-4.23c9.82-3.41,19.148-10.266,24.785-18.805c9.293-13.599,17.73-39.878,18.082-66.046v-0.078   C239.976,128.183,231.539,101.902,222.246,88.296z M223.324,210.755c-6.416,14.554-16.207,23.4-30.598,27.328   c-7.74,1.994-15.873,3.011-24.23,3.011c-8.35,0-16.529-1.017-24.27-3.011c-14.379-3.928-24.183-12.774-30.58-27.328   c-5.801-12.731-11.801-36.655-11.484-56.366c-0.315-19.711,5.685-43.632,11.484-56.357c6.397-14.563,16.201-23.406,30.58-27.34   c7.739-1.988,15.92-3,24.27-3c8.357,0,16.49,1.012,24.23,3c14.391,3.934,24.182,12.777,30.598,27.34   c5.789,12.727,11.795,36.646,11.473,56.357C235.119,174.099,229.113,198.022,223.324,210.755z"/>
	<path fill="#706F6F" d="M178.476,113.816l-1.172-2.051C178.3,113.642,177.515,112.203,178.476,113.816z"/>
	<path fill="#706F6F" d="M174.38,234.015c1.213-1.75,3.111-2.599,4.57-4.148c1.131-1.289,1.371-3.254,0.656-4.779   c-0.558-1.405-2.127-2.215-3.469-2.438c-1.688-0.111-3.416,0.229-4.57,1.459c-0.834,1.037-1.174,2.363-0.963,3.729l2.479-0.145   c-0.035-0.898,0.152-1.734,0.838-2.379c0.498-0.43,1.154-0.545,1.929-0.369c0.498,0.123,0.879,0.416,1.147,1.01   c0.428,0.945,0.205,2.094-0.397,2.668c-2.222,2.392-5.75,4.211-5.687,7.818l9.834-0.572c-0.029-0.707-0.082-1.465-0.135-2.227   L174.38,234.015z"/>
	<path fill="#706F6F" d="M145.961,220.835c-1.147,0.953-2.496,0.728-3.809,0.379l-0.527,1.621c1.002,0.354,2.25,0.707,3.287,1.074   l-0.041,0.146l-2.789,8.52l2.596,0.854l4.062-12.461l0.041-0.117l-2.104-0.677C146.447,220.421,146.377,220.507,145.961,220.835z"/>
	<path fill="#706F6F" d="M195.76,225.151l-0.79-0.17c0.813-0.574,1.563-1.736,1.295-2.859c-0.193-1.283-1.119-2.098-2.285-2.537   c-1.021-0.319-2.215-0.264-3.347,0.041c-1.147,0.258-2.215,0.769-2.987,1.523c-0.814,0.932-1.261,2.08-0.82,3.305   c0.275,1.123,1.477,1.795,2.455,1.933l-0.615,0.516c-1.037,0.996-1.166,2.172-0.891,3.414c0.299,1.379,1.412,2.461,2.76,2.858   c1.008,0.255,2.232,0.234,3.428-0.047c1.195-0.297,2.285-0.844,3.06-1.559c1.008-0.984,1.487-2.441,1.119-3.813   C197.812,226.53,197.126,225.544,195.76,225.151z M189.562,224.198c-0.316-0.535-0.316-1.449,0.246-1.988   c0.315-0.34,0.784-0.58,1.289-0.703c0.491-0.135,1.03-0.137,1.477,0.023c0.732,0.223,1.148,1.027,1.137,1.652   c-0.012,0.479-0.223,0.86-0.533,1.153c-0.315,0.287-0.768,0.492-1.235,0.601c-0.463,0.125-0.943,0.139-1.359,0.045   C190.166,224.858,189.796,224.624,189.562,224.198z M195.01,230.208c-0.327,0.385-0.92,0.683-1.559,0.834   c-0.645,0.16-1.301,0.181-1.77-0.016c-0.646-0.244-1.091-0.738-1.255-1.31c-0.245-0.856,0-1.758,0.722-2.27   c0.328-0.215,0.778-0.426,1.266-0.563c0.504-0.102,1.015-0.133,1.377-0.077c0.896,0.104,1.529,0.789,1.705,1.651   C195.621,229.046,195.468,229.702,195.01,230.208z"/>
	<path fill="#706F6F" d="M162.977,229.245l-0.703-0.397c0.938-0.302,1.998-1.183,2.074-2.343c0.205-1.289-0.445-2.344-1.418-3.116   c-0.886-0.604-2.027-0.896-3.205-0.955c-1.172-0.09-2.351,0.075-3.3,0.565c-1.065,0.646-1.834,1.619-1.786,2.914   c-0.06,1.152,0.885,2.16,1.786,2.574l-0.75,0.313c-1.295,0.632-1.77,1.724-1.862,2.99c-0.123,1.414,0.615,2.767,1.787,3.543   c0.873,0.566,2.057,0.906,3.287,0.992c1.213,0.068,2.426-0.141,3.381-0.59c1.254-0.633,2.139-1.885,2.196-3.301   C164.518,231.175,164.16,230.022,162.977,229.245z M158.172,224.659c0.388-0.229,0.927-0.322,1.431-0.281   c0.516,0.029,1.03,0.183,1.399,0.457c0.646,0.422,0.804,1.328,0.599,1.918c-0.146,0.47-0.476,0.75-0.855,0.949   c-0.393,0.168-0.873,0.23-1.354,0.197c-0.48-0.021-0.949-0.144-1.313-0.365c-0.352-0.231-0.65-0.57-0.738-1.043   C157.205,225.884,157.48,225.007,158.172,224.659z M160.75,233.844c-0.428,0.268-1.084,0.385-1.74,0.336   c-0.655-0.033-1.282-0.234-1.682-0.535c-0.545-0.426-0.809-1.035-0.797-1.646c0.018-0.875,0.521-1.662,1.365-1.934   c0.369-0.109,0.86-0.185,1.371-0.156c0.504,0.039,1.008,0.158,1.342,0.32c0.813,0.375,1.219,1.211,1.131,2.1   C161.688,232.905,161.33,233.489,160.75,233.844z"/>
	<polygon fill="#706F6F" points="222.035,103.515 209.912,108.753 210.99,111.269 223.125,106.042  "/>
	<path fill="#706F6F" d="M179.039,81.792c-0.68-2.836-1.271-6.647-1.846-10.012l-2.877-0.289l3.117,13.592l2.514,0.256l5.742-12.69   l-2.836-0.281C181.623,75.535,180.281,79.148,179.039,81.792z"/>
	<polygon fill="#706F6F" points="128.125,101.054 124.896,99.242 127.855,93.969 125.852,92.855 122.904,98.128 120.414,96.746    123.789,90.695 121.896,89.621 117.174,98.094 128.693,104.535 133.422,96.054 131.512,94.988  "/>
	<path fill="#706F6F" d="M118.867,148.957c-0.627-1.424-2.156-1.985-3.732-1.91c-1.329,0.168-2.338,1.066-2.905,2.438   c-0.199-0.803-0.955-1.805-2.222-1.963c-1.323-0.162-2.596,0.199-3.229,1.317c-0.873,1.113-0.492,6.023-0.58,8.854l13.107-0.012   l0.006-0.955C119.236,151.511,119.541,150.878,118.867,148.957z M111.42,154.933h-3.246c0.101-3.017-0.393-4.642,1.459-4.834   c1.097-0.082,1.39,0.157,1.642,0.825C111.484,151.599,111.42,152.314,111.42,154.933z M117.115,154.929l-3.686,0.004h-0.023   c0.064-2.931-0.393-4.658,1.354-4.998c0.609-0.164,1.359-0.101,1.812,0.356C117.32,151.015,117.092,152.214,117.115,154.929z"/>
	<polygon fill="#706F6F" points="225.878,123.699 227.988,123.158 225.328,112.835 223.23,113.382 224.214,117.214 213.626,119.947    214.3,122.621 224.906,119.886  "/>
	<path fill="#706F6F" d="M156.578,85.835l0.035-0.002c1.465-0.223,2.848-0.834,3.779-1.924c0.797-0.902,0.914-1.77,0.791-2.738   l-1.507-9.444l-2.694,0.432l1.518,9.439c0.088,0.711-0.403,1.444-1.037,1.809c-0.352,0.227-0.762,0.352-1.2,0.41   c-0.423,0.078-0.861,0.082-1.255-0.012c-0.715-0.146-1.399-0.621-1.553-1.396l-1.529-9.432l-2.678,0.436l1.519,9.433   c0.188,0.961,0.567,1.745,1.616,2.356C153.596,85.941,155.102,86.089,156.578,85.835z"/>
	<path fill="#706F6F" d="M229.324,132.087l-13.711-2.752l0.375,2.677l2.988,0.545l0.649,4.723l-2.707,1.342l0.357,2.685   l12.445-6.406L229.324,132.087z M226.939,133.857l-5.238,2.393l-0.457-3.27l5.695,0.871h0.018l-0.012,0.006H226.939z"/>
	<path fill="#706F6F" d="M225.591,147.261c-0.715,0.395-1.44,1.18-1.692,1.957c-0.769,1.829-0.457,4.561-1.986,5.655   c-0.445,0.234-1.254,0.287-1.617-0.112c-0.979-0.777-1.102-2.88-0.551-4.199c0.375-0.816,1.185-1.236,2.01-1.344l-0.17-2.535   c-1.336,0.012-2.442,0.676-3.264,1.746c-1.359,2.067-1.266,5.395-0.076,7.508c0.867,1.34,2.338,2.078,4.014,1.791   c3.839-0.814,2.802-5.486,4.295-7.693c0.316-0.479,0.896-0.438,1.365-0.315c0.892,0.356,1.189,1.323,1.213,2.278   c0.054,0.938-0.151,2.099-1.024,2.566l-0.217,0.088l-0.3,0.076l-0.246,0.041l-0.192,0.006l0.164,2.52   c1.529-0.088,3.022-1.077,3.479-2.448c0.81-1.972,0.732-5.226-1.024-6.886C228.679,146.89,226.945,146.679,225.591,147.261z"/>
	<path fill="#706F6F" d="M118.076,129.017l-9.434-1.468l-0.429,2.675l9.445,1.5c0.709,0.104,1.248,0.83,1.396,1.532   c0.1,0.4,0.1,0.834,0.022,1.271c-0.059,0.426-0.188,0.848-0.416,1.199c-0.363,0.617-1.02,1.125-1.805,1.026l-9.435-1.461   L107,137.972l9.445,1.479c0.973,0.117,1.834-0.004,2.736-0.809c1.084-0.927,1.682-2.32,1.909-3.785v-0.029   c0.246-1.477,0.101-2.99-0.649-4.188C119.84,129.591,119.049,129.214,118.076,129.017z"/>
	<path fill="#706F6F" d="M141.918,86.726l2.32,1.969l2.303-1.406l-10.805-8.875l-2.414,1.469l2.895,13.677l2.32-1.396l-0.686-2.957   L141.918,86.726z M135.883,81.392l-0.012-0.023l0.012,0.01l-0.006-0.022l0.013,0.031l4.266,3.852l-2.813,1.719L135.883,81.392z"/>
	<polygon fill="#706F6F" points="195.345,77.748 201.726,80.419 202.582,78.406 193.634,74.666 188.531,86.844 197.484,90.582    198.333,88.562 191.923,85.88 193.347,82.476 198.943,84.828 199.804,82.707 194.25,80.375  "/>
	<path fill="#706F6F" d="M119.436,111.953c-0.006-0.901-0.054-1.651-0.804-2.377c-0.721-0.752-1.875-1.092-3.006-1.018   c-2.94,0.448-3.328,3.819-4.963,9.168l12.646,3.77l0.797-2.645l-5.004-1.482l-0.199-0.057c0.334-1.224,0.832-2.763,1.072-3.097   c0.901-2.086,4.254-0.041,5.578-0.231l0.772-2.625C124.076,111.484,121.047,109.464,119.436,111.953z M116.811,116.677   l-3.316-0.976c0.732-2.25,1.055-4.522,2.637-4.395c0.646,0.108,1.084,0.28,1.453,0.741   C118.199,112.81,117.408,114.503,116.811,116.677z"/>
	<path fill="#706F6F" d="M211.195,96.169c0.738,0.537,1.377,0.939,2.408,0.748c1.037-0.145,1.992-0.871,2.596-1.84   c1.354-2.645-1.137-4.94-4.512-9.395l-10.472,8l1.664,2.188l4.138-3.158l0.182-0.127c0.773,0.988,1.74,2.293,1.857,2.685   c1.166,1.965-2.484,3.457-3.082,4.651l1.651,2.168C208.851,100.179,212.267,98.933,211.195,96.169z M208.933,91.261l2.729-2.099   c1.406,1.908,3.047,3.515,2.004,4.724c-0.463,0.452-0.85,0.698-1.447,0.725C211.224,94.66,210.333,93.027,208.933,91.261z"/>
</g>
<g>
	<g>
		<path fill="#706F6F" d="M203.917,104.324c-2.783-6.328-8.326-10.984-15.082-12.914c-6.34-1.711-13.219-2.676-20.104-2.676h-0.217    c-6.891,0-13.764,0.965-20.109,2.676c-6.756,1.93-12.287,6.586-15.082,12.914c-6.07,13-10.037,31.691-10.037,50.064    c0,18.385,3.967,37.065,10.037,50.062c2.795,6.326,8.326,10.992,15.082,12.92c6.346,1.707,13.219,2.666,20.109,2.666h0.217    c6.887,0,13.766-0.959,20.104-2.666c6.756-1.928,12.299-6.594,15.082-12.92c6.054-12.996,10.037-31.677,10.037-50.062    C213.955,136.015,209.97,117.324,203.917,104.324z M192.251,141.568c0.188,0.006,1.072-0.182,1.09-0.738v-11.602    c1.601-0.373,3.211-0.92,4.718-1.229v6.994c0.914-0.104,1.364-0.223,2.483-0.393v9.217l-2.871,0.432l-0.896,3.717H186.55    l-1.522-3.311c-2.479-0.229-2.654-0.229-5.15-0.406c2.345-3.021,4.752-6.031,6.381-9.34v-4.715l4.611-0.59v11.178    c0,0.389,0.568,0.785,1.144,0.785L192.251,141.568L192.251,141.568z M186.246,98.921c1.148-0.332,2.713-0.188,3.687,0.677    c1.307,0.944,1.688,2.547,1.371,4.034c-0.914,3.216-4.507,3.813-7.419,4.574l-1.594-2.168    C182.882,103.269,183.199,100.07,186.246,98.921z M177.304,111.765l1.172,2.051l-2.925,3.199c-0.791-0.759-0.854-0.83-1.641-1.652    C175.417,113.785,175.564,113.621,177.304,111.765z M141.098,107.402l0.006-0.016c0.516,1.52,1.477,2.608,3,3.332    c-0.176-0.813-0.886-1.544-1.113-2.396c-0.662-1.668-0.598-4.045,0.486-5.496c0.768-1.141,1.875-1.608,3.088-1.996    c-0.463,1.375-0.604,3.013-0.041,4.402c0.797-0.603,0.838-0.642,1.453-1.238c0.229-0.223,0.334-0.293,0.532-0.445    c1.132,2.406,2.402,5.72,1.658,8.523l-0.457,1.203c-0.182-1.979-0.504-2.926-1.834-3.641c-0.176,1.147,0.563,1.977,0.732,3.477    c0.545,2.324,0.117,4.629-1.318,5.969h-3.709C140.746,116.054,140.552,111.507,141.098,107.402z M149.641,122.703h-1.986    l-0.855,7.082c-0.85-0.768-1.815-1.307-2.877-1.647c-0.504-3.009-0.551-3.224-0.825-5.435h-1.916v-2.102    c3.305-0.013,5.139,0.004,8.455,0.004L149.641,122.703z M135.262,150.878l22.733-0.012v6.605l-22.733,0.02V150.878z     M144.057,137.617c0.948-0.256,1.868,0.336,2.596,0.883c-0.111,3.832-0.111,3.789-0.193,7.814h-2.108l-0.013-0.646    C144.256,142.623,144.127,140.625,144.057,137.617z M146.477,183.287c-1.324,0.926-2.549,1.006-3.851,1.002    c-0.422-0.006-1.178-0.063-1.61-0.199c-0.979-0.245-2.367-0.772-3.199-2.098l-0.164-0.311l-0.146-0.398l-0.182-0.422l-0.07-0.666    l0.006-12.352c-0.11-1.556-0.69-1.585-1.956-2.527l0.45-0.152l5.004-1.637c0.709,0.777,0.873,1.771,0.938,2.801v9.652    c-0.012,0.627,0.533,0.983,1.254,1.02c0.855,0,1.207-0.321,1.277-1.002c0.063-4.324-0.07-5.537,0-9.467    c0.11-1.32,1.289-2.641,2.401-2.943c1.39-0.661,3.064-0.403,4.302,0.211c2.231,1.054,2.12,5.414,2.098,8.953    c-0.873-0.573-1.014-0.645-1.887-0.885c-0.763-0.164-1.601-0.018-2.191,0.435c-0.721,0.659-0.797,1.301-0.809,2.454    C148.082,178.851,148.533,181.669,146.477,183.287z M149.289,197.665c-1.084-0.715-1.336-1.418-1.717-2.408    c-0.92-4.194,4.148-5.7,5.35-9.187c0.943-5.83,1.226-11.971,5.279-16.512c0.398-8.562,3.17-16.138,9.258-22.359    c-0.287-1.934-1.078-3.604-1.658-5.406c-0.797-0.03-1.336-0.184-2.057-0.823c-0.527-0.748-0.744-1.306-0.879-2.207    c-2.121,2.629-4.746,5.565-7.635,7.342c-0.527,0.299-1.201-0.328-2.168-1.226c-3.545-2.805-4.144-9.135-9.545-8.858    c-2.455-0.824-2.338-3.715-2.742-5.877c0.908-0.666,2.391-0.633,3.479-0.209c3.375,1.805,5.625,5.604,8.808,8.147    c0.85,0.681,1.617,1.57,2.401,1.898c2.093-1.801,3.763-3.347,5.187-6.123c0.979-1.584,2.606-2.264,4.412-2.287l1.283-1.512    l-0.681-3.781c-1.317-1.68-2.408-3.445-3.293-5.336c0.463-2.164,0.744-4.688,2.937-5.883c1.436-0.892,2.602,1.137,3.778-0.148    c0.855-0.176,1.601,0.06,2.199,0.547c0.892,1.549,1.939,3.086,1.998,4.888c-0.545,1.747-1.371,3.366-2.199,5.004    c-0.188,0.354-0.69,0.473-1.03,0.737c0.204,0.738,0.381,1.56,0.891,2.146c0.652,0.137,1.272,0.25,2.053,0.108    c0.633-1.911,2.689-2.77,4.406-3.284l3.768-2.457c-0.604-2.859,1.23-5.371,0.211-8.218c-2.155-1.02-2.771-3.444-3.233-5.356    c0.346-1.181,0.926-2.447,1.781-3.455l0.123,0.149c2.063,2.392,3.948,4.855,4.604,7.828c0.369,3.797,0.738,7.688,0.492,11.65    c-2.039,2.029-4.494,3.232-6.803,4.736l-1.718,3.291c-0.205,3.396-1.2,6.45-1.723,9.737c1.465,3.974,3.199,9.265,1.922,12.938    c-0.983,2.19-3.041,3.387-4.57,4.604l-3.862,3.088c3.88,4.267,2.942,9.105,3.106,15.294c-0.041,1.493,2.638,2.735,1.213,4.44    c-1.194,1.91-3.055,3.457-2.743,5.965c-1.189,1.996-4.02,2.422-5.367,2.402c-0.281,0.02-0.51-0.199-0.51-0.486    c0.28-1.024,1.077-1.828,1.5-2.801c1.383-2.111,0.75-5.027,2.461-6.99c-1.406-4.6-3.539-8.858-4.125-13.764l-0.035-0.314    c-1.154,2.254-0.517,4.466,0.088,6.244c-3.803,4.795-7.928,9.404-7.928,15.709c-1.629,2.89-3.938,5.52-5.146,8.574    C150.514,198.38,149.752,197.935,149.289,197.665z M174.515,182.496c2.227,0.101,4.477,1.951,5.344,4.025    c0.885,2.121,0.539,4.893-0.832,6.658c-1.711,2.077-4.084,3.179-6.851,2.681c-1.741-0.385-3.459-1.447-4.46-3.08    c1.424-0.477,3.451-1.297,3.852-2.68c-0.105-2.156,1.377-3.884,2.479-5.603C174.609,183.757,174.679,183.308,174.515,182.496z     M176.63,180.582l0.019-19.504c2.789-0.039,3.686,0.037,6.58-0.016v19.52H176.63z M162.455,210.345    c-1.805,1.307-4.799,1.61-6.797,0.491c-1.148-0.551-2.18-1.664-2.807-2.754c-0.476-1.043-0.668-1.405-0.709-2.483    c4.752,0,7.963,0,13.002,0.006C165.115,207.409,164.096,209.173,162.455,210.345z M171.363,210.837h-4.479v-8.032l-6.973,0.006    v-3.234h7.002l2.197-2.596c1.065,1.246,1.154,1.336,2.264,2.596h6.99v3.234l-7.002-0.006V210.837z M185.378,208.083    c-0.639,1.09-1.651,2.203-2.807,2.754c-1.992,1.119-4.998,0.814-6.791-0.491c-1.635-1.173-2.66-2.937-2.684-4.74    c5.038-0.006,8.227-0.006,12.995-0.006C186.041,206.677,185.865,207.04,185.378,208.083z M186.433,163.789    c1.065-0.828,1.928-1.549,3.198-2.545c-0.094,2.529-0.444,5.099,0.773,6.601c2.988,2.969,5.688,5.651,8.373,8.288    c1.002,1.078,1.793,2.621,1.143,4.048c-0.315,0.692-0.744,1.461-1.2,2.086c0-1.388-0.599-2.189-1.39-2.976    c-3.656-3.586-9.979-8.584-10.488-10.709C186.292,167.162,186.468,165.439,186.433,163.789z M196.617,161.232    c1.396,1.143,2.098,1.774,3.422,3.033c0.75,3.323-1.242,5.207-2.729,7.539l-5.896-5.634v-3.28    c0.703-0.769,0.949-1.052,1.771-1.855l1.664,2v5.547C197.191,167.443,196.617,164.115,196.617,161.232z M195.216,190.974    c-0.702,0.772-0.948,1.057-1.77,1.862l-1.664-1.998v-5.563c-2.338,1.147-1.775,4.467-1.775,7.348    c-1.383-1.129-2.08-1.77-3.409-3.021c-0.75-3.322,1.229-5.209,2.735-7.547l5.883,5.637V190.974z M200.191,190.078    c-1.056,0.838-1.928,1.551-3.199,2.537c0.094-2.525,0.451-5.098-0.768-6.596c-2.982-2.957-5.685-5.65-8.373-8.287    c-0.996-1.078-1.8-2.623-1.144-4.049c0.312-0.687,0.738-1.461,1.201-2.08c0,1.389,0.609,2.18,1.396,2.965    c3.655,3.586,9.979,8.59,10.487,10.709C200.337,186.708,200.167,188.414,200.191,190.078z M202.476,157.523l-22.734-0.031v-6.613    l22.734-0.012V157.523z"/>
	</g>
</g>
<g>
	<g>
		<path fill="#706F6F" d="M65.189,254.995v30.209h205.642v-30.209H65.189z M93.502,279.815h-9.28V260.21    c3.938,0.013,6.229,0,9.485,0c3.023,0,5.408,1.642,5.637,4.642c0.205,2.073-0.444,3.871-2.936,4.496    c2.203,0.608,3.621,2.62,3.633,5.229C100.053,276.8,98.324,279.815,93.502,279.815z M130.158,274.528    c-0.047,1.467-0.422,2.705-1.805,3.846c-1.617,1.381-3.81,1.943-6.013,1.935h-0.059c-2.215,0.01-4.395-0.554-6.006-1.935    c-1.396-1.141-1.764-2.379-1.828-3.846v-14.271h4.049l0.012,14.271c0.035,1.166,0.927,2.033,1.951,2.404    c0.558,0.246,1.207,0.354,1.853,0.319c0.645,0.035,1.289-0.073,1.846-0.319c1.021-0.371,1.928-1.341,1.945-2.404l0.006-14.271    h4.049V274.528z M158.898,279.823c-0.933-0.008,0.451-7.791-2.918-7.992c-1.888-0.125-3.07-0.045-4.945-0.02l0.018,8.012h-4.09    v-19.629c3.756,0.027,5.912,0.051,9.281,0.051c3.035,0.148,6.06,1.367,6.264,4.664c0.229,3.813-1.928,4.688-3.948,5.344    c4.682,1.004,2.946,6.468,4.194,9.57H158.898z M191.08,267.636l0.012,3.397h-9.006l-0.006,5.488h10.324l0.006,3.266h-14.432    v-19.641h14.432l-0.006,3.248l-10.307,0.01v4.223L191.08,267.636z M219.498,279.823l-1.424-4.285h-7.096l-1.424,4.285h-4.021    l6.873-19.637h4.23l6.866,19.637H219.498z M251.835,274.503c-0.063,1.461-0.434,2.699-1.828,3.836    c-1.61,1.392-3.797,1.949-6.012,1.938h-0.053c-2.203,0.012-4.396-0.547-6.012-1.938c-1.384-1.137-1.765-2.375-1.822-3.836v-14.28    h4.065v14.28c0.035,1.164,0.938,2.021,1.939,2.41c0.568,0.23,1.207,0.336,1.863,0.32c0.645,0.016,1.289-0.09,1.846-0.32    c1.014-0.391,1.928-1.352,1.945-2.41l0.006-14.28h4.061L251.835,274.503L251.835,274.503z M214.523,264.062l-0.006-0.023v0.035    l-2.438,8.205h4.894l-2.449-8.205V264.062z M93.502,271.142c-1.938-0.119-3.737-0.107-5.186-0.107v0.035l-0.019,5.492    c4.043-0.051,4.185,0,5.566-0.16c1.406-0.164,2.068-1.41,2.068-2.633C95.932,272.546,95.025,271.237,93.502,271.142z     M156.238,263.444c-1.154-0.09-3.252,0.043-5.18,0v5.063c3.768,0.011,4.342-0.002,5.514-0.108    c1.166-0.117,1.916-1.172,1.916-2.613C158.477,264.335,157.41,263.558,156.238,263.444z M93.221,267.976    c1.43,0,2.297-0.97,2.297-2.556c0-1.51-1.148-2.18-2.449-2.18h-4.758l0.006,4.734L93.221,267.976L93.221,267.976z"/>
	</g>
</g>
<g>
	<g>
		<path fill="#706F6F" d="M149.137,298.351c-1.154-0.105-3.265,0.027-5.181,0v5.059c3.744,0.013,4.33-0.004,5.496-0.125    c1.16-0.116,1.935-1.159,1.922-2.602C151.363,299.229,150.297,298.437,149.137,298.351z M218.332,298.965l-0.006,0.022    l-0.006-0.022v0.034l-2.455,8.224h4.898l-2.433-8.224L218.332,298.965L218.332,298.965z M65.189,289.968v30.218h205.642v-30.218    H65.189z M93.191,314.761H89.43l-6.656-19.646l4.295-0.008c1.359,4.906,2.813,10.449,4.236,14.555    c1.436-4.104,2.895-9.647,4.235-14.547l4.242-0.008L93.191,314.761z M124.668,302.604v3.395l-9-0.008v5.5h10.313l0.012,3.267    h-14.426v-19.652h14.432l-0.018,3.25l-10.301,0.008v4.234L124.668,302.604z M151.779,314.702c-0.92,0,0.451-7.78-2.912-7.991    c-1.893-0.105-3.07-0.021-4.945-0.005l0.019,7.996h-4.084v-19.621c3.75,0.023,5.906,0.043,9.287,0.043    c3.028,0.16,6.053,1.379,6.252,4.681c0.233,3.811-1.929,4.684-3.943,5.34c4.682,1.014,2.937,6.463,4.195,9.559L151.779,314.702    L151.779,314.702z M174.187,314.761h-4.109v-19.652h4.109V314.761z M201.445,298.465h-5.859v16.297h-4.09l-0.018-16.297    l-5.877,0.004v-3.21h15.844V298.465z M223.283,314.761l-1.424-4.285h-7.096l-1.418,4.285h-4.025l6.891-19.646h4.213l6.88,19.646    H223.283z M244.916,315.202c-5.965,0-8.262-3.727-8.262-6.584l3.756-0.139c0,1.559,1.471,3.586,4.207,3.586    c2.109,0,4.453-0.445,4.453-2.75c0-4.172-11.813-1.727-11.813-8.348c0-3.527,2.402-6.544,7.595-6.544    c7.2,0,7.846,4.888,7.846,6.142l-3.779,0.137c0-1.6-0.973-3.073-3.627-3.073c-2.883,0-4.002,1.254-4.002,2.625    c0,3.53,11.877,1.719,11.877,8.336C253.166,312.978,249.75,315.202,244.916,315.202z"/>
	</g>
</g>
</svg>