<?xml version="1.0" encoding="utf-8"?>

<svg version="1.0" id="Capa_1" xmlns="http://www.w3.org/2000/svg" xmlns:xlink="http://www.w3.org/1999/xlink" x="0px" y="0px"
	 viewBox="0 0 864 864" style="enable-background:new 0 0 864 864;" xml:space="preserve">
<style type="text/css">
	.st0{fill:#FFFFFF;}
</style>
<g id="u6QO3j_1_">
	<g>
		<path d="M431.54,807.83c-39.99-0.22-78.88-6.75-116.92-18.62c-28.81-8.98-56.27-21.37-81.68-37.43
			c-18.56-11.73-35.89-25.58-52.88-39.57c-25.7-21.17-46.72-46.7-65.16-74.36c-23.38-35.06-40.93-72.81-50.89-113.79
			c-5.14-21.15-9.82-42.51-10.03-64.46c-0.2-20.77-1.56-41.68,0.33-62.28c3.1-33.68,10.86-66.62,23.25-98.22
			c13.27-33.83,30.8-65.44,53.01-94.22c18.27-23.68,39.16-44.85,62.26-64.06c35.36-29.41,75.25-50.38,118.33-65.28
			c23.31-8.07,47.4-14.04,72.2-15.97c16.37-1.28,32.75-2.64,49.15-3.26c23.69-0.9,47.06,2.61,70.3,6.66
			c37.03,6.46,71.87,19.45,105.21,36.6c26.09,13.42,49.87,30.22,72.16,49.27c24.43,20.88,45.7,44.62,64.15,70.78
			c25.76,36.54,44.18,76.59,55.13,120.04c6.25,24.8,9.51,49.91,10.83,75.49c1.15,22.23-0.56,44.09-3.15,66.05
			c-4.27,36.14-14.08,70.61-29.16,103.77c-13.55,29.8-30.28,57.7-50.97,82.83c-13.86,16.83-29.87,32.11-46.25,46.57
			c-14.44,12.74-30.11,24.35-46.35,34.72c-29.64,18.92-61.29,34.1-95.47,42.95c-19.92,5.16-40.14,9.48-60.47,12.6
			C463.04,806.99,447.21,806.86,431.54,807.83z M799.8,429.98c-0.48-8.72-0.63-17.48-1.52-26.16c-1.52-14.78-2.44-29.73-5.52-44.2
			c-7.47-35.14-19.38-68.72-37.03-100.26c-17.15-30.65-38.06-58.38-62.54-83.37c-10.12-10.34-21.62-19.37-32.76-28.67
			c-29.61-24.72-63.2-42.74-98.98-56.5c-25.6-9.84-52.01-17.29-79.57-19.62c-17.11-1.45-34.2-3.13-51.33-4.29
			c-5.35-0.36-10.81,0.49-16.19,1.03c-15.92,1.61-31.91,2.77-47.72,5.15c-25.14,3.78-49.08,11.82-72.71,21.2
			c-41.58,16.51-78.78,39.83-111.48,70.19c-20.95,19.45-39.02,41.43-55.33,64.99c-15.33,22.15-27.72,45.82-37.71,70.63
			c-16.99,42.19-24.78,86.45-25.61,131.81c-0.27,14.65,1.08,29.45,3.09,43.98c2.37,17.14,5.56,34.23,9.66,51.04
			c7.35,30.11,20.4,57.97,35.4,85.01c13.44,24.21,30.16,45.99,48.83,66.19c18.32,19.82,38.47,37.64,60.89,52.99
			c28.03,19.18,57.97,34.14,90.01,45.25c34.57,11.98,70.2,18.14,106.58,19.97c12.97,0.65,26.12,0.31,39.02-1.07
			c18.93-2.02,37.87-4.61,56.53-8.35c35.74-7.16,68.97-21.24,100.81-38.78c21.61-11.91,41.48-26.35,60.15-42.35
			c21.87-18.73,41.03-40,57.56-63.69c15.55-22.29,28.94-45.8,39.46-70.79C790.82,526.2,799.98,479.02,799.8,429.98z"/>
		<path class="st0" d="M799.8,429.98c0.18,49.04-8.99,96.22-27.98,141.34c-10.52,24.99-23.9,48.5-39.46,70.79
			c-16.52,23.68-35.69,44.96-57.56,63.69c-18.67,15.99-38.54,30.44-60.15,42.35c-31.84,17.54-65.07,31.62-100.81,38.78
			c-18.66,3.74-37.6,6.33-56.53,8.35c-12.91,1.38-26.05,1.72-39.02,1.07c-36.38-1.83-72.01-7.99-106.58-19.97
			c-32.05-11.11-61.98-26.07-90.01-45.25c-22.42-15.34-42.58-33.17-60.89-52.99c-18.67-20.2-35.39-41.99-48.83-66.19
			c-15.01-27.04-28.05-54.9-35.4-85.01c-4.1-16.8-7.29-33.9-9.66-51.04c-2.01-14.53-3.36-29.33-3.09-43.98
			c0.84-45.36,8.62-89.62,25.61-131.81c9.99-24.81,22.38-48.48,37.71-70.63c16.31-23.56,34.38-45.54,55.33-64.99
			c32.7-30.36,69.9-53.68,111.48-70.19c23.62-9.38,47.57-17.41,72.71-21.2c15.81-2.38,31.8-3.54,47.72-5.15
			c5.38-0.54,10.84-1.39,16.19-1.03c17.13,1.16,34.22,2.84,51.33,4.29c27.56,2.33,53.97,9.78,79.57,19.62
			c35.78,13.76,69.37,31.78,98.98,56.5c11.14,9.3,22.63,18.33,32.76,28.67c24.47,24.99,45.39,52.72,62.54,83.37
			c17.65,31.54,29.56,65.12,37.03,100.26c3.08,14.47,4,29.43,5.52,44.2C799.18,412.5,799.32,421.25,799.8,429.98z M695.43,432.67
			c-0.54-8.12-1.22-16.23-1.59-24.36c-0.88-19.24-5.16-37.81-11.17-55.98c-10.06-30.42-24.42-58.66-45.76-82.74
			c-12.19-13.75-24.6-27.65-38.74-39.26c-27.73-22.76-59.17-38.91-93.91-49.1c-34.33-10.07-69.12-11.96-104.19-8.42
			c-30.57,3.09-59.78,12.47-87.15,26.43c-28.07,14.31-53.66,32.41-74.57,56.26c-10.56,12.05-21.15,24.32-29.73,37.77
			c-16.97,26.59-28.73,55.62-34.95,86.68c-5.25,26.17-6.82,52.62-4.12,79.2c2.68,26.3,9.31,51.6,19.68,76
			c16.96,39.9,43.07,72.78,76.51,99.87c21.16,17.15,44.76,30.37,70.25,40.23c28.43,11,57.83,16.9,88.26,17.4
			c9.68,0.16,19.43-0.16,29.06-1.14c13.06-1.33,26.33-2.35,38.96-5.6c15.26-3.93,30.14-9.58,44.86-15.32
			c28.69-11.2,53.63-28.59,75.57-49.86c12.46-12.08,23.51-25.74,34.29-39.4c18.22-23.08,30.09-49.66,38.23-77.65
			C691.92,480.66,695.73,456.92,695.43,432.67z M579.93,746.98c-7.82-21.03-15.34-41.22-22.85-61.42c-1.97,0.54-3.28,0.85-4.55,1.26
			c-7.68,2.42-7.49,2.35-4.58,9.66c4.59,11.55,8.9,23.21,13.6,35.54c-1.58-0.45-2.62-0.46-3.25-0.97
			c-11.98-9.76-23.89-19.6-35.88-29.35c-1.26-1.03-3.15-2.52-4.31-2.2c-3.98,1.09-7.77,2.89-11.96,4.55
			c7.96,20.94,15.66,41.21,23.46,61.72c3.98-1.74,7.45-3.26,11.21-4.9c-5.44-14.43-10.73-28.45-16.02-42.48
			c0.49-0.24,0.98-0.49,1.47-0.73c12.24,9.96,24.44,19.98,36.78,29.82c1.88,1.5,4.52,3.15,6.66,2.96
			C572.99,750.13,576.17,748.33,579.93,746.98z M105.49,387.42c16.97-3.39,32.45-6.43,47.91-9.61c5.04-1.04,8.91-7.24,7.44-12.07
			c-0.37-1.22-2.22-2.61-3.57-2.83c-21.41-3.51-42.86-6.85-64.75-10.29c-0.49,3.98-0.98,8.01-1.49,12.2
			c16.68,2.18,32.39,4.23,48.89,6.38c-1.18,0.59-1.61,0.93-2.08,1.03c-15.07,3.01-30.16,5.95-45.22,9
			c-4.16,0.84-8.61,7.37-7.69,11.44c0.26,1.13,1.74,2.62,2.86,2.82c20.65,3.65,41.33,7.14,62.02,10.61
			c3.02,0.51,4.93-0.52,4.73-4.05c-0.08-1.33,0-2.78,0.47-4c1.21-3.1-0.01-4.29-3-4.62c-11.51-1.29-23.01-2.6-34.51-4
			C113.96,388.99,110.47,388.26,105.49,387.42z M212.19,162.44c11.7,16.48,23.39,33.01,35.16,49.49c5.15,7.21,6.43,7.26,13.28,1.04
			c0.55-0.5,0.93-1.17,1.62-2.07c-9.5-12.47-18.95-24.89-29.17-38.31c14.42,9.16,27.53,17.58,40.77,25.78
			c1.52,0.94,4.14,1.5,5.62,0.84c2.9-1.3,5.35-3.58,8.3-5.68c-12.94-18.1-25.61-35.86-38.32-53.57c-3.91-5.44-5.66,1.05-8.37,1.81
			c-3.51,0.98-3.45,3.78-1.39,6.42c6.52,8.38,13.11,16.72,19.64,25.09c2.51,3.22,4.97,6.48,7.46,9.72
			c-2.09,0.01-3.32-0.79-4.54-1.61c-10.46-6.94-21.38-13.3-31.21-21.03c-7.07-5.56-12.28-4.05-17.99,1.06
			C212.76,161.67,212.56,161.99,212.19,162.44z M593.54,694.91c-5.79-8.37-10.46-15.12-15.33-22.16c-3.71,2.47-7,4.68-10.61,7.08
			c10.08,15.23,19.85,30.07,29.71,44.84c6.54,9.8,6.59,9.77,16.44,3.83c0.27-0.16,0.35-0.66,0.49-0.94
			c-1.8-9.51-15.81-14.59-9.42-27.53c1.75,0.38,3.63,0.56,5.36,1.19c8.51,3.12,16.96,6.42,25.5,9.48c1.47,0.53,3.58,0.76,4.85,0.09
			c4.15-2.18,8.06-4.85,12.68-7.71c-14.4-5.31-27.93-10.41-41.55-15.26c-3.44-1.22-4.88-2.11-3.78-6.51
			c2.6-10.38,4.16-21.01,6.28-32.25c-2.32,1.61-3.9,3.09-5.78,3.93c-6.51,2.91-9.29,7.6-9.87,14.88
			C597.83,676.36,595.5,684.72,593.54,694.91z M174.19,204.98c0.56,1.94,0.67,5.6,2.45,8.02c9.34,12.69,19.93,24.18,33.88,32.08
			c4.69,2.66,9.4,3.42,14.15,0.56c15.59-9.4,22.46-20.43,10.74-34.54c-7.97-9.6-17.93-17.65-27.55-25.72
			c-5.85-4.9-13.13-6.39-19.89-1.4C181.32,188.91,174.69,194.17,174.19,204.98z M677.91,283.29c2.89-0.94,6.13-1.33,8.6-2.92
			c10.38-6.7,20.94-13.24,30.65-20.85c10.23-8.03,11.04-17.21,3.38-28.14c-7.57-10.8-15.02-14.17-27.11-7.6
			c-10.65,5.78-20.51,13.13-30.23,20.44c-3.32,2.5-6.24,6.67-7.45,10.65C652.2,266.54,665.31,282.65,677.91,283.29z M740.86,265.43
			c-1.24,0.34-2,0.43-2.66,0.74c-17.16,8.04-34.36,16.02-51.45,24.21c-9.7,4.65-9.62,4.83-4.02,14.22c0.17,0.29,0.63,0.42,0.86,0.56
			c8.55-1.87,15.15-10.75,26.34-6.67c-6.75,8.02-13.03,15.49-19.46,23.12c2.03,3.92,4.05,7.8,6.37,12.26
			c8.66-10.41,16.8-20.43,25.28-30.15c1.26-1.44,4.1-2.17,6.18-2.1c9.88,0.32,19.74,1.03,30.23,1.63
			c-1.76-3.86-3.05-7.24-4.85-10.33c-0.58-1-2.49-1.65-3.83-1.72c-8.9-0.5-17.81-0.78-26.72-1.18c-1.18-0.05-2.35-0.4-4.88-0.86
			c9.91-4.85,18.53-9.07,27.42-13.41c-1.06-1.93-1.97-3.38-2.68-4.92C742.21,269.13,741.61,267.35,740.86,265.43z M325.3,714.82
			c4.45-21.91-14.66-40.35-35.92-34.83c-12.95,3.36-20.29,13.14-24.81,24.89c-6.16,16-1.74,30.68,10.68,38.19
			c14.09,8.52,31.33,5.28,38.82-7.56c-2.6-1.31-5.07-3.02-7.8-3.76c-1.77-0.48-4.49-0.24-5.82,0.86
			c-8.19,6.74-20.73,3.53-24.29-6.46c-4.18-11.74,5.89-31.11,17.83-34.31c8.05-2.15,18.27,3.47,19.27,10.6
			C314.49,711.27,315.35,712.17,325.3,714.82z M617.41,221.21c2.55-12.52,5.19-24.73,7.44-37.01c0.67-3.66,2.11-5.59,5.65-7.02
			c8.84-3.59,17.43-7.78,26.78-12.02c-4.08-3.07-7.45-5.59-11.08-8.32c-9.86,4.84-19.89,9.77-29.93,14.69
			c-0.24-0.41-0.48-0.82-0.72-1.23c5.53-7.55,11.05-15.1,16.84-23c-3.62-2.6-6.84-4.91-10.18-7.3
			c-13.73,19.01-27.14,37.58-40.68,56.31c3.61,2.38,6.91,4.55,9.83,6.47c7.04-5.88,8.63-16.72,20.3-18.26
			c-0.67,3.77-1.31,6.74-1.7,9.74c-1.24,9.57-8.62,20.55,5.98,26.56C616.12,220.9,616.31,220.92,617.41,221.21z M350.8,165.74
			c-1.25-8.83-7.92-16.97-2.05-26.61c1.06,0.88,1.87,1.35,2.43,2.03c4.67,5.66,9.14,11.48,14.01,16.95
			c1.33,1.49,3.86,2.84,5.74,2.72c3.28-0.21,6.49-1.61,10.22-2.65c-1.59-2.27-2.68-4.07-4.01-5.68
			c-7.15-8.61-14.51-17.06-21.42-25.86c-1.31-1.67-1.68-4.84-1.2-7.03c2.07-9.32,4.63-18.53,6.98-27.66
			c-9.93,0.38-15.04,4.82-15.66,14.88c-0.41,6.62-2.63,13.13-4.05,19.7c-0.51,0.02-1.02,0.05-1.53,0.07
			c-2.61-8.92-5.23-17.84-7.96-27.16c-4.29,1.39-8.01,2.58-11.56,3.73c6.46,22.49,12.77,44.42,19.12,66.51
			C344.1,168.15,347.5,166.93,350.8,165.74z M710.6,386.43c3.87-1.97,6.91-3.54,9.97-5.07c14.04-7.06,27.99-14.29,42.15-21.09
			c11.61-5.58,11.72-5.35,8.37-17.65c-0.05-0.19-0.06-0.39-0.07-0.58c-0.11-3.87-2.38-4.69-5.84-4.62
			c-21.41,0.43-42.82,0.71-64.22,1.08c-0.87,0.02-1.73,0.43-2.99,0.76c1.37,4.18,2.59,7.95,3.89,11.92c4.66,0,9.16,0.27,13.61-0.09
			c3.49-0.28,4.97,1.2,5.62,4.3c0.44,2.08,0.9,4.19,1.64,6.17c1.22,3.26,0.06,5.12-2.98,6.41c-4.06,1.72-8.03,3.66-12.06,5.52
			C708.68,377.91,709.56,381.8,710.6,386.43z M422.8,153.11c3.97,0,7.79,0,12.15,0c-0.26-1.87-0.27-3.39-0.7-4.79
			c-6.19-19.9-12.42-39.78-18.71-59.64c-0.31-0.99-1.21-2.54-1.87-2.56c-5.04-0.18-10.1-0.2-15.13,0.16
			c-0.73,0.05-1.66,2.35-1.86,3.71c-1.99,13.35-3.8,26.73-5.76,40.08c-1.27,8.69-2.68,17.36-4.18,26.98
			c4.99-0.68,8.88-1.2,13.12-1.78c0.43-4.26,0.76-8.28,1.26-12.27c0.34-2.73,0.72-5.37,4.64-5.29c2.85,0.05,5.79-1.1,8.56-0.74
			c1.64,0.21,3.73,2.01,4.42,3.61C420.47,144.61,421.5,148.93,422.8,153.11z M151.44,305.9c1.6-3.24,2.82-5.64,3.98-8.07
			c5.67-11.85,2.57-21.1-9.08-27.15c-8.48-4.4-18.14-4.26-22.39,2.12c-5.64,8.46-9.65,18.01-14.47,27.3
			c21.56,10.02,42.04,19.54,62.92,29.24c1.91-3.92,3.55-7.29,5.24-10.78C168.76,314.26,160.41,310.23,151.44,305.9z M174.53,263.67
			c2.44-3.53,4.27-6.02,5.95-8.62c6.1-9.45,4.99-18.84-3.7-25.8c-9.01-7.22-20.11-9.49-28.17,1.81
			c-4.69,6.58-9.32,13.21-14.09,19.98c19.09,12.99,38.15,25.96,57.27,38.96c0.94-1.29,1.77-2.34,2.51-3.45
			c4.51-6.7,4.51-6.72-2.05-11.11C186.53,271.6,180.76,267.8,174.53,263.67z M365.49,738.17c4.17-5.49,10.7-7.1,15.07-3.51
			c1.56,1.28,3.16,3.95,2.84,5.62c-0.26,1.34-3.33,2.86-5.26,3.02c-5.02,0.43-10.11-0.02-15.16,0.19
			c-8.1,0.34-13.97,6.9-13.99,15.35c-0.02,7.04,5.62,13.07,13.42,13.19c5.23,0.08,10.47-1.25,15.86-1.97
			c1.06,8.73,9,3.52,13.47,6.59c-0.49-3.62-1.44-6.29-1.09-8.79c1.09-7.83,2.41-15.64,4.13-23.35c2.47-11.07-1.17-17.37-12.29-20.14
			c-2.05-0.51-4.15-0.8-6.22-1.23c-10.8-2.26-18.85,2.63-21.59,12.51C358.18,736.46,361.68,737.28,365.49,738.17z M461.68,762.55
			c2.92,3.65,4.69,7.28,7.59,9.23c8.88,5.97,18.63,4.66,27.72,0.76c8.36-3.59,11.79-10.04,10.72-16.75
			c-1.11-6.92-5.17-10.05-15.24-11.35c-4.79-0.62-9.69-0.51-14.44-1.34c-1.81-0.31-3.63-2.09-4.81-3.67
			c-0.39-0.53,1.01-3.52,1.93-3.71c4.17-0.84,10.65-3.01,12.28-1.16c4.91,5.57,9.67,2.11,14.79,2.28
			c-0.59-6.93-4.73-11.18-10.42-12.05c-7.13-1.1-14.64-1.53-21.53,2.48c-5.77,3.36-10.1,10.15-9.19,15.5
			c1.1,6.47,6.47,10.71,14.26,11.43c5.38,0.5,10.79,0.94,16.11,1.88c1.6,0.28,4.23,2.31,4.1,3.19c-0.28,1.82-1.75,3.95-3.35,4.98
			c-4.37,2.81-11.99,1.33-15.98-2.09c-1.33-1.14-3.71-1.45-5.6-1.42C468.36,760.78,466.12,761.6,461.68,762.55z M406.31,762.88
			c0.63,7.41,1.72,9.69,7.14,12.65c9.01,4.93,18.59,5.34,27.98,1.55c5.61-2.27,9.14-6.48,9.26-13.42
			c0.12-6.97-3.55-10.43-9.21-12.44c-5.23-1.86-10.75-2.88-15.98-4.71c-2.05-0.72-3.67-2.65-5.49-4.03
			c2.05-1.75,3.99-4.78,6.16-4.96c3.13-0.26,7.86,0.54,9.39,2.68c3.84,5.36,8.53,4.03,13.39,3.98c0.04-6.78-3.06-12.02-9.43-13.82
			c-4.74-1.34-9.92-1.38-14.91-1.47c-8.12-0.15-15.57,5.48-16.32,11.87c-1.07,9.11,2.48,13.84,12.39,16.4
			c4.83,1.25,9.78,2.12,14.5,3.68c3.82,1.27,4.42,4.6,1.77,7.23c-2.89,2.87-14.6,3.05-16.22-0.47
			C417.29,760.11,411.54,763.31,406.31,762.88z M636.8,240.4c2.99-3.61,5.76-7.1,8.7-10.45c6.66-7.57,14.57-12.84,24.59-15.51
			c9.44-2.51,18.47-6.55,27.7-9.92c-5.43-8.13-8.83-9.3-16.94-5.97c-6.35,2.61-12.73,5.17-19.54,7.94
			c3.49-7.96,6.76-15.11,9.72-22.39c0.69-1.7,1.14-4.35,0.3-5.66c-1.92-3-4.71-5.44-7.78-8.81c-4.8,12.6-9.15,23.68-13.25,34.86
			c-4.39,11.97-16.37,17.49-23.54,26.94C630.03,234.34,632.74,236.76,636.8,240.4z M501.86,92.2c-0.55,2.72-1.04,4.96-1.46,7.2
			c-2.96,15.66-5.87,31.33-8.89,46.97c-0.69,3.58-3.56,5.13-6.49,3.69c-1.78-0.88-3.11-3.87-3.44-6.1
			c-0.31-2.07,0.97-4.37,1.71-7.19c-4.13-0.83-7.97-1.61-12.1-2.45c-1.76,7.44-4.26,14.8,1.72,20.58c2.9,2.8,7.62,4.21,11.76,5.16
			c11.17,2.58,16.65-1.43,18.75-12.72c1.22-6.6,2.74-13.14,4.03-19.72c2.17-11.07,4.26-22.16,6.46-33.63
			C509.59,93.35,505.88,92.8,501.86,92.2z M780.21,388.62c-23.25,2.43-45.96,4.8-68.32,7.14c0,4.68,0,8.46,0,12.41
			c23.44-2.53,46.34-5.01,69.92-7.56C781.27,396.57,780.77,392.83,780.21,388.62z M457.85,154.31c1.45-23.04,2.87-45.47,4.29-68.01
			c-4.57,0-8.5,0-12.52,0c-1.4,22.95-2.78,45.39-4.17,68.25c2.96,0,5.08,0.03,7.19-0.01C454.17,154.52,455.71,154.41,457.85,154.31z
			 M164.49,352.17c5.58-11.79,5.34-11.55-5.67-14.81c-18.42-5.45-36.65-11.57-55.72-17.65c-1.33,3.61-2.78,7.56-4.26,11.6
			C121.32,338.45,142.77,345.27,164.49,352.17z M525.67,169.69c1.33-4.22,2.48-8.03,3.73-11.81c5.57-16.83,11.19-33.65,16.7-50.5
			c0.36-1.11,0.34-2.92-0.33-3.69c-3.88-4.48-10.7-3.25-12.49,2.27c-6.4,19.75-12.66,39.53-19.09,59.67
			C517.69,166.87,521.39,168.18,525.67,169.69z M343.19,698.36c-6.52,20.88-12.93,41.39-19.53,62.51c4.35,1.2,8.11,2.23,11.79,3.24
			c6.53-21.29,12.78-41.68,19.05-62.15c-2.26-0.96-4.17-1.9-6.17-2.57C346.89,698.9,345.31,698.77,343.19,698.36z M696.82,593.06
			c-5.41-8.31-9.07-10.06-15.15-7.22c-4.46,2.08-7.74,8.36-6.52,12.49c1.48,4.99,6.94,8.02,13.19,7.32
			c3.64,9.8,8.97,13.24,16.63,10.74c5.27-1.72,9.13-9.56,7.62-15.46C711.02,594.83,704.49,591.57,696.82,593.06z M743.12,515.33
			c6.21,1.01,9.37-0.67,11.07-5.37c2.25-6.21,0.66-12.15-5.44-14.74c-6.11-2.6-12.8-4.37-19.39-5.11
			c-5.52-0.62-10.61,1.54-12.67,7.9c-1.56,4.81-0.56,8.64,3.08,12c4.19,3.87,11.42,5.16,16.18,2.58c5.62-3.05,6.52-8.03,4.61-14.22
			c1.32,0.43,2.02,0.63,2.69,0.88c7.58,2.81,8.05,5.65,2.19,11.08C744.22,511.44,743.91,513.54,743.12,515.33z M723.44,568.2
			c5.31,0.31,9.11,0.2,11.95-3.24c3.5-4.24,4.1-10.35,0.98-13.93c-6.84-7.85-15.74-11.6-26.07-11.53
			c-5.31,0.04-9.84,5.38-10.34,10.74c-0.76,8.07,5.84,11.98,13.85,13.5c6.1,1.16,10.14-3.7,10.58-11.48
			c0.04-0.67,0.27-1.34,0.48-2.31c1.19,0.53,1.91,0.77,2.54,1.15c6.96,4.2,6.96,7.34,0.27,11.82
			C726.25,563.89,725.4,565.7,723.44,568.2z M168.16,633.55c10.95-7.66,20.76-14.44,30.43-21.44c0.79-0.57,1.16-3.24,0.59-3.82
			c-0.89-0.91-3.08-1.58-4.14-1.09c-2.84,1.32-5.38,3.31-8.27,5.18c-1.91-14.01-10.98-14.82-19.73-9.36
			c-5.03,3.14-9.54,7.85-8.65,14.05c0.49,3.41,4.63,6.28,7.13,9.4c0.27-0.29,0.54-0.57,0.82-0.86
			C166.85,627.83,167.36,630.06,168.16,633.55z M231.8,660.51c-4.98-9.34-8.78-12.16-14.34-9.47c-4.18,2.02-8.19,5.36-10.96,9.09
			c-3.84,5.16-2.88,12.31,1.15,15.39c3.59,2.75,7.47,5.11,11.91,8.11c8.02-8.87,16.54-18.28,25.33-27.99
			c-1.88-1.64-3.37-2.94-4.75-4.14C237.17,654.71,234.71,657.37,231.8,660.51z M129.95,494.75c-0.61-3.7-0.71-7.26-1.84-10.45
			c-1.78-5.05,0.07-6.2,4.77-6.06c3.4,0.1,5.02,1.1,4.95,4.71c-0.04,2.28,0.72,4.55,0.93,6.85c0.44,4.82,2.72,6.35,7.39,4.48
			c-1.59-8.39-3.14-16.56-4.73-24.93c-11.34,1.99-21.66,4.33-32.12,5.44c-5.93,0.63-6.12,2.92-4.6,7.54
			c4.08-0.65,7.87-1.27,11.67-1.86c3.07-0.47,5.3-0.14,5.39,3.92c0.08,3.4,0.9,6.78,1.42,10.34
			C125.48,494.75,127.54,494.75,129.95,494.75z M141.77,520.02c0.02-7.95-5.16-14.68-11.82-14.36c-9.62,0.45-18.3,5.74-17.8,14.19
			c0.49,8.3,5.14,13.46,13.34,13.46C135.38,533.31,141.74,528.12,141.77,520.02z M197.72,653.13c-2.59-1.34-5.4-2.39-7.68-4.13
			c-1.64-1.25-3.28-3.32-3.57-5.23c-0.22-1.4,1.74-3.14,2.73-4.73c1.4,1.07,2.93,2.01,4.16,3.25c2.97,2.98,5.79,6.11,8.67,9.17
			c7.45-5.6,9.2-11.84,5.15-18.25c-3.97-6.27-9.35-7.68-15.87-4.16c-8.71,4.7-12.35,11.86-9.5,18.7
			C184.69,654.65,190.06,657.08,197.72,653.13z M156.77,558.59c-1.3-5.04-3.25-6.12-7.13-4.05c-3.57,1.91-7.47,3.3-11.35,4.51
			c-3.68,1.15-7.16,0.6-8.49-3.71c-1.25-4.06,1.72-5.37,4.76-6.53c5.16-1.97,10.3-4.02,15.79-6.17c-1.25-2.43-2.19-4.25-3.13-6.06
			c-6.56,2.79-12.67,5.2-18.61,7.98c-7.05,3.3-7.88,9.7-2.13,14.89c0.97,0.88,2.09,1.6,2.09,1.6c0.39,3.34,0.65,5.57,1.01,8.6
			C139.25,565.72,147.94,562.19,156.77,558.59z M148.13,602.03c5.88-3.18,11.26-5.84,16.37-8.93c5.76-3.48,7.43-7.86,4.28-12.34
			c-2.84-4.03-6.21-7.67-7.29-13.07c-7.57,3.98-14.28,7.79-21.23,11.08c-4.85,2.29-3.94,4.65-0.92,8.15
			c4.95-2.7,9.57-5.49,14.42-7.79c3.53-1.68,7.07-2.16,9.15,2.59c2.04,4.66-1.82,5.75-4.37,7.28c-4.41,2.65-9.09,4.84-14.16,7.49
			C145.75,598.51,146.79,600.05,148.13,602.03z M649.14,625.22c-0.95,2.91-1.69,4.5-1.96,6.16c-0.41,2.5-0.52,5.04-0.69,7.57
			c-0.09,1.43-0.04,2.87-0.05,4.31c1.34-0.56,3.1-0.76,3.94-1.74c2.67-3.14,4.7-2.95,7.52,0c4.15,4.33,8.81,8.16,13.18,12.29
			c3.88,3.66,5.5,1.49,6.85-2.34C668.62,642.97,659.47,634.64,649.14,625.22z"/>
		<path d="M695.43,432.67c0.3,24.25-3.51,47.98-10.2,71.02c-8.14,27.99-20,54.57-38.23,77.65c-10.79,13.66-21.83,27.33-34.29,39.4
			c-21.94,21.27-46.88,38.66-75.57,49.86c-14.72,5.74-29.6,11.4-44.86,15.32c-12.64,3.25-25.91,4.27-38.96,5.6
			c-9.63,0.98-19.38,1.3-29.06,1.14c-30.44-0.5-59.83-6.4-88.26-17.4c-25.49-9.87-49.09-23.08-70.25-40.23
			c-33.43-27.09-59.55-59.97-76.51-99.87c-10.37-24.4-17-49.7-19.68-76c-2.7-26.58-1.13-53.02,4.12-79.2
			c6.23-31.05,17.99-60.08,34.95-86.68c8.58-13.45,19.18-25.73,29.73-37.77c20.91-23.86,46.5-41.95,74.57-56.26
			c27.37-13.96,56.57-23.34,87.15-26.43c35.07-3.54,69.86-1.66,104.19,8.42c34.74,10.19,66.17,26.34,93.91,49.1
			c14.14,11.61,26.55,25.5,38.74,39.26c21.35,24.09,35.7,52.32,45.76,82.74c6.01,18.17,10.29,36.74,11.17,55.98
			C694.21,416.44,694.89,424.56,695.43,432.67z M360.84,566.94c-3.31,1.76-6.48,3.91-9.97,5.2c-19.18,7.11-19.21,7.04-18.64,23.43
			c0.01,0.19-0.07,0.43,0.01,0.58c0.9,1.48,1.49,3.57,2.82,4.31c4.18,2.32,8.54,4.39,13.01,6.08c13.59,5.14,27.23,8.67,41.63,2.24
			c3.86-1.72,3.96-3.44,2.64-6.58c-2.92-6.93-5.68-13.93-8.64-20.84c-2.69-6.28-5.56-12.48-8.04-18.02
			c-5.56,1.37-10.23,2.52-14.89,3.67c4.5-2.1,8.91-4.44,13.55-6.13c0.99-0.36,3.57,1.28,4.15,2.56c2.78,6.17,5.09,12.55,7.65,18.83
			c2.97,7.25,6.03,14.47,9.41,22.56c8.67-6.3,12.35-14.27,12.67-23.69c0.38-11.25,0.09-22.52,0.09-33.64c4.2-1.57,5.5-0.2,5.46,3.5
			c-0.11,9.75,0.27,19.51-0.13,29.24c-0.37,8.86-3.04,17.04-9.12,23.9c-12.06,13.62-27.61,15.18-43.9,11.8
			c-17.88-3.71-33.32-12.95-48.18-23.37c-16.61-11.65-31.44-25.23-45.59-39.65c-4.28-4.36-6.78-9.07-3.17-15.16
			c2.37-3.99,1.03-7.38-1.59-10.91c-7.27-9.78-14.95-19.35-21.1-29.82c-4.56-7.76-10.14-10.34-18.53-9.31
			c-3.41,0.42-4.6,0.88-3.78,4.92c8.37,41.23,26.96,77.26,55.15,108.28c17.75,19.53,38.61,35.25,61.98,47.56
			c22.29,11.74,45.68,20.26,70.98,21.94c15.51,1.03,31.24,2.17,46.64,0.73c19.96-1.86,39.34-7.15,57.94-15.33
			c32.95-14.5,60.99-35.32,83.83-63.06c15.1-18.34,27.8-38.3,36.48-60.45c5.25-13.38,9-27.36,13.85-42.39
			c-5.04,0-8.28,0.16-11.5-0.04c-4.08-0.25-7.14,0.53-9.84,4.28c-8.13,11.29-16.67,22.29-25.3,33.2c-3.09,3.9-4.15,7.19-1.49,11.98
			c2.27,4.08,3.92,8.95-0.89,13.07c-2.32,1.98-4.17,4.5-6.44,6.55c-18.4,16.62-36.59,33.49-58.75,45.23
			c-14.84,7.87-30.05,14.05-47.34,13.63c-15.3-0.37-32.51-11.24-35.44-26.12c-2.59-13.15-1.55-27.03-1.93-40.59
			c-0.02-0.72,1.7-1.48,2.61-2.22c0.81,1.22,2.3,2.43,2.32,3.66c0.19,9.94-0.18,19.9,0.19,29.83c0.35,9.29,4.57,16.74,12.65,22.75
			c6.49-15.23,12.76-29.93,19.32-45.3c5.18,2.63,9.72,4.93,14.28,7.26c-3-0.85-5.96-2.08-9.01-2.41c-1.78-0.19-4.86,0.56-5.41,1.77
			c-5.12,11.17-9.82,22.53-14.63,33.84c-3,7.04-2.96,7.16,3.97,10.03c1.06,0.44,2.19,0.76,3.32,0.98
			c13.59,2.69,26.08-0.73,38.91-5.31c10.15-3.63,15.65-7.91,13.96-19.52c-0.68-4.67-2.2-6.33-6.31-7.96
			c-8.49-3.37-16.63-7.64-24.91-11.54c2.22,0.66,4.52,1.13,6.66,2c13.53,5.49,26.97,11.19,40.57,16.49c1.85,0.72,5.1,0.43,6.53-0.78
			c11.67-9.84,23.08-19.99,34.48-30.13c0.83-0.74,1.69-2.51,1.37-3.34c-2.91-7.47-6.09-14.84-8.97-21.71
			c-5.14,0.97-9.76,2.94-14.09,2.44c-10.32-1.2-18.98-6.61-25.96-14.12c-19.01-20.45-37.73-41.18-56.61-61.76
			c-3.72-4.06-7.66-7.93-11.5-11.88c-0.52,0.2-1.04,0.4-1.56,0.6c0,28.66,0,57.32,0,86.02c-6.16,0-11.35,0-16.73,0
			c0-57.1,0-113.88,0-170.71c5.98,0,11.5,0,17.76,0c0,15.92,0,31.39,0,46.85c0.49,0.32,0.97,0.63,1.46,0.95
			c5.65-4.46,11.34-8.86,16.94-13.38c14.76-11.91,29.6-23.72,44.15-35.88c4.79-4,7.21-0.12,9.61,2.32c2.43,2.47,3.86,5.55-0.19,8.77
			c-14.8,11.74-29.41,23.72-44.02,35.69c-7.32,5.99-14.5,12.15-22.28,18.68c2.73,3.54,5.08,6.8,7.66,9.88
			c10.65,12.72,21.21,25.51,32.09,38.03c10.29,11.83,20.68,23.6,31.51,34.93c7.13,7.46,17.6,9.12,24.68,4.6
			c-2.73-6.22-5.47-12.58-8.3-18.88c-1.77-3.94-2.34-6.85,2.96-8.95c31.11-12.33,62.11-24.96,93.14-37.52
			c9.93-4.02,19.83-8.13,31.4-12.89c-44-18.47-86.41-36.26-129.97-54.55c17.55-42.52,35.02-84.85,52.96-128.29
			c-43.26,17.75-85.25,34.97-127.83,52.44c-1.19-1.97-2.61-3.8-3.48-5.85c-2.18-5.18-3.98-10.53-6.25-15.67
			c-0.56-1.26-2.3-2.77-3.56-2.82c-6.37-0.29-12.75-0.13-19.7-0.13c0,10.06,0,19.53,0,31.03c-2.68-2.02-5.18-3.01-5.21-4.06
			c-0.29-10.65-0.18-21.31-0.18-32.52c2.92,0,5.02,0,7.12,0c14.63,0,29.25-0.15,43.88,0.08c5.03,0.08,8.13-1.69,8.11-6.73
			c-0.02-5.25-3.99-5.85-8.25-5.83c-14.82,0.07-29.64,0.04-44.46,0.01c-2.04,0-4.08-0.22-6.43-0.35c0-5.03-0.2-9.32,0.11-13.58
			c0.11-1.46,1.13-3.27,2.31-4.18c10.39-8.05,12.41-19.83,9.14-30.33c-4.04-12.99-15.68-20.97-28.62-20.06
			c-11.27,0.79-19.86,6.76-24.65,16.97c-4.79,10.22-3.7,20.92,4.24,28.66c6.83,6.66,5.87,13.57,5.32,21.89c-2.32,0-4.41,0-6.5,0
			c-14.82,0-29.64,0.04-44.46-0.03c-4.22-0.02-7.59,1.05-7.48,5.94c0.11,4.69,2.8,6.66,7.66,6.59c14.82-0.2,29.64-0.07,44.46-0.07
			c2.08,0,4.15,0,6.72,0c0,11.13,0.12,21.44-0.16,31.75c-0.03,1.23-2.19,2.39-3.37,3.59c-0.57-0.37-1.13-0.75-1.7-1.12
			c0-9.45,0-18.9,0-28.24c-20.86-2.59-21.95-1.93-28.52,16.89c-0.06,0.18-0.06,0.39-0.12,0.57c-2.39,6.54-4.39,7.29-10.83,4.54
			c-17.79-7.6-35.62-15.11-53.44-22.63c-16.56-6.99-33.12-13.99-49.71-20.9c-5.38-2.24-10.87-4.23-17.06-6.62
			c7.96,19.5,15.5,37.93,23,56.37c9.09,22.36,18.09,44.75,27.31,67.05c1.23,2.97,1.16,4.51-1.99,5.8
			c-33.28,13.68-66.54,27.42-99.79,41.18c-8.15,3.37-16.24,6.87-26.07,11.04c8.91,3.81,16.12,6.96,23.38,9.98
			c32.16,13.38,64.36,26.68,96.49,40.12c8.77,3.67,8.9,4.41,4.6,12.83c-0.26,0.51-0.84,0.88-1.05,1.4
			c-2.2,5.46-4.36,10.93-6.63,16.65c7.39,1.87,13.47,0.7,19.11-2.99c9.76-6.38,16.57-15.63,20.78-25.98
			c8.88-21.8,16.76-44.03,24.48-66.27c8.23-23.69,15.77-47.62,23.71-71.42c1.48-4.44,4.87-6.51,9.54-5.9
			c5.04,0.66,4.95,4.43,4.94,8.35c-0.06,39-0.04,78-0.03,117.01c0,1.94,0.17,3.88,0.26,5.81c0.57,0.08,1.14,0.15,1.71,0.23
			c2.12-5.3,4.52-10.51,6.31-15.92c8.58-26.05,16.86-52.2,25.53-78.21c4.88-14.62,8.42-29.83,17.99-42.53
			c11.65-15.44,26.51-24.43,46.33-24.28c21.54,0.17,40.17,8.97,58.22,19.46c2.45,1.42,4.49,3.56,6.93,5.53
			c-3.46,4.02-6.58,7.64-9.71,11.27c-3.25-2.22-6.05-4.3-8.99-6.13c-12.61-7.82-25.84-14.84-40.75-15.95
			c-21.63-1.61-35.17,6.64-46.61,26.33c-4.67,8.04-6.87,17.6-9.63,26.64c-5.24,17.15-9.89,34.48-15.11,51.63
			c-6.61,21.76-13.54,43.42-20.33,65.12c-3.34,10.68-7.08,21.26-9.92,32.07c-1.83,6.99-6.87,4.67-11.14,5.14
			c-4.32,0.48-4.61-2.65-4.96-5.56c-0.73-5.93-1.85-11.87-1.88-17.82c-0.18-34.13-0.08-68.25-0.1-102.38c0-2.02-0.18-4.04-0.36-7.62
			c-1.19,1.96-1.62,2.47-1.84,3.06c-11.66,29.91-23.08,59.91-35.06,89.69c-4.79,11.9-11.09,23.25-21.13,31.66
			c-9.5,7.96-18.11,13.15-30.32,5.68c-2.84-1.74-4.56-1.03-5.85,1.99c-2.72,6.37-5.73,12.61-8.37,19.01
			c-0.45,1.1-0.14,3.3,0.68,4.03c11.95,10.76,24.01,21.39,36.17,31.91c0.86,0.74,2.9,0.84,4.06,0.38
			c8.26-3.24,16.39-6.78,24.64-10.06C346.4,572.27,353.65,569.64,360.84,566.94z M582.37,331.9c29.84,0,58.78,0,88.65,0
			c-13.09-30.81-31.26-57.17-55.11-81.22C604.42,278.51,593.46,305.04,582.37,331.9z M563.75,376.86c0.79,0.86,1,1.26,1.33,1.4
			c9.22,3.98,18.41,8.03,27.69,11.87c15.23,6.29,15.18,6.15,26.73-5.25c11.47-11.33,23.15-22.44,34.69-33.7
			c5.28-5.16,10.44-10.44,16.65-16.66c-30.02,0-58.23-0.05-86.45,0.13c-1.61,0.01-4.06,1.56-4.67,3.01
			C574.21,350.63,569.04,363.73,563.75,376.86z M194,332.57c2.17,2.41,3.27,3.73,4.48,4.94c15.69,15.7,31.83,30.98,46.9,47.26
			c7.09,7.65,12.79,10.73,22.83,4.96c9.77-5.62,20.78-9.08,31.84-13.75c-5.65-13.47-11.17-26.4-16.48-39.42
			c-1.41-3.45-3.55-4.36-7.14-4.34c-25.51,0.15-51.02,0.08-76.53,0.09C198.44,332.31,196.96,332.43,194,332.57z M673.14,336.26
			c-1.35,0.98-2.18,1.44-2.83,2.07c-9.26,8.89-18.55,17.74-27.72,26.72c-9.74,9.55-19.27,19.32-29.09,28.79
			c-2.77,2.67-2.63,3.71,0.89,5.17c22.51,9.35,44.96,18.84,67.43,28.29c2.94,1.24,5.88,2.48,9.77,4.13
			C691.56,397.83,685.59,366.73,673.14,336.26z M191.29,335.01c-12.9,29.56-18.67,60.72-19.5,94.22
			c27.68-11.43,54.18-22.37,80.58-33.27C231.85,375.49,211.78,355.47,191.29,335.01z M332.39,194.43
			c-30.17,12.51-56.82,29.88-81.52,52.82c27.41,11.38,53.9,22.38,81.52,33.86C332.39,251.89,332.39,223.66,332.39,194.43z
			 M248.27,249.58c-23.31,24.31-41.96,49.83-54.88,80.09c29.62,0,58.16,0,87.52,0C270.05,303.04,259.45,277.01,248.27,249.58z
			 M613.08,248.24c-23.7-22.71-49.44-40.3-79.31-52.62c0,28.62,0,56.62,0,85.46C560.42,270.05,586.31,259.33,613.08,248.24z
			 M608.62,468.78c3.63,3.12,6.67,5.04,8.8,7.7c5.06,6.29,11.15,9.11,19.29,8.05c4.37-0.56,8.87-0.1,14.27-0.1
			c-1.37,6.3-2.71,11.82-3.69,17.41c-0.28,1.62-0.12,3.99,0.87,5.05c7.29,7.82,14.84,15.4,23.35,24.12
			c13.39-31,19.61-62.08,20.08-95.59C663.92,446.55,637.21,457.29,608.62,468.78z M171.82,432.99
			c-0.09,33.68,5.99,64.73,18.48,95.51c8.23-8.23,15.99-15.81,23.45-23.67c0.98-1.04,0.81-3.57,0.55-5.32
			c-0.82-5.57-1.92-11.1-3.03-17.28c6.43,0,11.66,0,16.89,0c8.64,0,19.32-7.44,22.81-16.05
			C224.88,455.24,198.79,444.3,171.82,432.99z M526.69,192.66c-28.52-11.58-59.61-17.59-92.03-18.25
			c1.47,9.65,2.61,11.67,10.42,14.94c18.56,7.76,26.17,30.22,16.65,46.99c-0.75,1.33-0.93,3.53-0.38,4.95
			c1.65,4.3,3.78,8.41,5.51,12.13C486.82,233.15,506.68,212.98,526.69,192.66z M430.18,174.39c-33.19,0.4-63.72,6.62-91.85,17.63
			c19.98,19.98,39.83,39.82,59.34,59.33c0.48-1.25,0.95-3.9,2.36-5.88c3.24-4.55,2.58-8.82,0.5-13.54
			c-7.75-17.58,1.67-35.92,18.04-42.3C426.12,186.69,426.84,181.17,430.18,174.39z M473.02,255.05c8.72,0,17.62-0.12,26.52,0.08
			c2.4,0.05,5.19,0.5,7.09,1.81c4.02,2.78,6.48,6.61,4.85,11.99c-1.7,5.62-6.09,9.27-12.3,9.44c-7,0.19-14.01,0.04-22.11,0.04
			c2.42,5.61,5.11,10.4,6.55,15.53c1.61,5.78,4.32,6.15,9.2,3.99c10.97-4.86,22-9.6,33.2-13.87c4.11-1.57,5.11-3.81,5.09-7.81
			c-0.13-25.16-0.06-50.31-0.08-75.47c0-1.26-0.14-2.53-0.2-3.51C511.59,216.51,492.5,235.59,473.02,255.05z M336,197.69
			c-0.49,5.59-1.42,11.53-1.47,17.48c-0.19,20.85-0.15,41.69,0.07,62.54c0.02,1.81,1.58,4.55,3.15,5.26
			c12.83,5.77,25.83,11.17,39.33,16.92c3.23-7.55,6.31-14.73,9.69-22.59c-8.18,0-15.72,0.21-23.25-0.06
			c-6.9-0.25-12.46-5.92-12.44-12.1c0.02-5.18,6.21-10.07,12.82-10.08c9.84-0.02,19.68-0.01,29.38-0.01
			C373.99,235.73,354.96,216.68,336,197.69z M191.73,532.25c12.85,30.22,29.83,56.13,53.19,79.05c3.6-8.35,6.82-15.54,9.71-22.87
			c0.43-1.1-0.34-3.11-1.19-4.21c-11.68-15.18-20.31-32.04-27.81-49.57c-0.45-1.06-2.08-2.28-3.19-2.3
			C212.73,532.17,203.01,532.25,191.73,532.25z M670.08,534.32c-10.03,0-19.16,0.18-28.27-0.08c-3.95-0.11-5.98,1.42-7.39,4.95
			c-1.85,4.65-3.77,9.35-6.33,13.63c-7.39,12.39-15.11,24.58-22.69,36.83c3.35,7.55,6.75,15.21,10.47,23.6
			C638.83,589.68,656.93,564.46,670.08,534.32z M297.98,486.57c-1.61-1.01-3.11-2.26-4.82-2.98c-7.31-3.08-14.7-5.95-22.03-8.99
			c-17.11-7.1-17.1-7.12-29.43,5.8c-0.27,0.28-0.76,0.53-0.8,0.83c-0.22,2.03-1.25,4.7-0.35,6.02c9.17,13.4,18.67,26.57,28.06,39.81
			c2,2.82,4.45,5.44,8.05,3.86c2.18-0.95,3.67-3.49,4.82-4.66c-4.56-5.68-8.52-10.17-11.87-15.08c-0.84-1.22-0.4-4.53,0.68-5.5
			c1.01-0.9,3.84-0.42,5.55,0.26c2.47,0.99,4.64,2.74,6.96,4.12c3.38,2.01,5.44,0.65,6.77-2.66
			C292.29,500.62,295.05,493.84,297.98,486.57z M573.3,511.04c0.69,0.37,1.38,0.74,2.07,1.11c2.83-3.41,5.34-7.18,8.61-10.1
			c1.67-1.49,4.69-1.46,7.1-2.12c0.09,2.18,0.93,4.68,0.15,6.47c-2.53,5.78-5.63,11.31-8.57,16.9c-1.39,2.65-4.4,5.81,0.32,7.5
			c3.02,1.08,6.57,1.04,9.24-2.68c8.1-11.27,16.93-22.02,24.94-33.35c7.25-10.27,7.56-6.54-0.85-16.74
			c-6.5-7.88-12.04-8.76-20.81-4.22c-10.17,5.26-21.16,8.94-31.93,13.36C567,495.59,570.15,503.31,573.3,511.04z M248.81,613.61
			c7.04,13.92,62.48,50.72,81.19,54.43c0-4.36,0.37-8.55-0.15-12.62c-0.28-2.14-1.6-4.98-3.33-5.98
			c-19.9-11.48-37.9-25.33-53.88-41.86c-1.1-1.14-3.78-1.86-5.25-1.36C261.23,608.34,255.25,610.99,248.81,613.61z M590.71,606.65
			c-0.61,0.41-1.16,0.66-1.54,1.06c-16.45,17.2-35.02,31.66-55.78,43.33c-1.08,0.61-2.15,2.25-2.21,3.46
			c-0.25,4.79-0.1,9.6-0.1,14.51c18.72-4.01,74.48-40.69,80.95-53.26C604.89,612.71,597.79,609.68,590.71,606.65z M527.69,670.36
			c-2.85-2.58-5.45-4.39-7.35-6.76c-2.81-3.52-5.24-3.29-9.37-1.68c-20.73,8.07-42.03,14.12-64.44,15.09
			c-12.03,0.52-9.76-0.59-14.15,12.12C457.51,691.2,509.17,680.99,527.69,670.36z M427.81,689.49c-2.72-5.95-1.53-12.41-10.19-12.61
			c-24.19-0.55-47.18-6.74-69.21-16.65c-1.3-0.58-3.51-1.35-4.17-0.76c-3.67,3.25-6.99,6.9-11.02,11.02
			C364.11,682.8,394.73,689.16,427.81,689.49z M645.89,508.84c-2.68,7.72-5.3,15.25-7.96,22.92c10.62,0,20.8,0,30.59,0
			C661.14,524.29,653.77,516.82,645.89,508.84z M216.35,507.99c-7.56,7.23-15.06,14.4-22.64,21.63c9.99,0,19.64,0,29.94,0
			C221.03,521.86,218.59,514.63,216.35,507.99z M591.49,604.75c7.43,3.17,14.17,6.05,20.9,8.92c0.28-0.39,0.56-0.78,0.85-1.17
			c-3.03-6.94-6.06-13.88-9.46-21.67C599.48,595.7,595.94,599.71,591.49,604.75z M247.36,611.85c7.22-2.75,12.97-4.84,18.61-7.23
			c0.8-0.34,1.7-2.7,1.35-3.13c-3.23-3.94-6.73-7.67-10.79-12.16C253.38,597.07,250.66,603.75,247.36,611.85z M329.66,580.89
			c-5.23,2.25-9.79,4.21-15.66,6.74c5.9,3.66,10.46,6.48,15.66,9.71C329.66,591.46,329.66,586.74,329.66,580.89z M546.89,588.61
			c-6.01-2.45-10.53-4.3-15.3-6.24c0,5.39,0,9.85,0,15.47C536.64,594.8,540.8,592.29,546.89,588.61z M398.68,254.62
			c4.37,0,7.96,0,11.35,0c1.79-6.25-0.75-10.01-6.27-12.99C402.08,245.94,400.49,250,398.68,254.62z M465.08,254.83
			c-2.3-5.03-4.14-9.06-6.03-13.2c-5.54,3.5-7.72,7.45-5.64,13.2C457.04,254.83,460.5,254.83,465.08,254.83z M589.27,550.35
			c8.38-4.43,2.52-9.42,1.63-13.72c-0.93-4.46-4.58-3.38-8.09-2.95C585.08,539.54,587.13,544.83,589.27,550.35z M331.5,652.53
			c0,5.33,0,9.81,0,13.85c3.33-2.93,6.63-5.82,10.24-8.99C338.26,655.74,335.19,654.28,331.5,652.53z M271.34,549.38
			c2.15-5.43,4.12-10.4,6.09-15.37c-0.55-0.47-1.11-0.95-1.66-1.42c-1.92,1.02-4.96,1.6-5.55,3.13
			C268.63,539.86,265.57,544.52,271.34,549.38z M519.31,658.4c3.16,3.88,5.7,7.01,9.12,11.2c0-6.08,0-10.23,0-15.72
			C524.83,655.66,522.07,657.03,519.31,658.4z M429.72,688.07c1.59-4.15,2.62-6.82,3.64-9.49c-2.27-0.26-4.55-0.51-7.79-0.88
			C427.11,681.54,428.01,683.8,429.72,688.07z M427.89,185.94c2.81,0,5.04,0,8.03,0c-1.28-3.15-2.37-5.82-4.1-10.07
			C430.15,180.13,429.1,182.82,427.89,185.94z"/>
		<path d="M579.93,746.98c-3.76,1.35-6.94,3.16-10.24,3.44c-2.14,0.18-4.78-1.46-6.66-2.96c-12.34-9.84-24.54-19.86-36.78-29.82
			c-0.49,0.24-0.98,0.49-1.47,0.73c5.29,14.03,10.58,28.05,16.02,42.48c-3.76,1.64-7.23,3.16-11.21,4.9
			c-7.79-20.51-15.5-40.78-23.46-61.72c4.19-1.66,7.98-3.46,11.96-4.55c1.16-0.32,3.05,1.18,4.31,2.2
			c11.99,9.75,23.9,19.59,35.88,29.35c0.63,0.51,1.67,0.52,3.25,0.97c-4.7-12.33-9.01-23.99-13.6-35.54
			c-2.9-7.3-3.09-7.24,4.58-9.66c1.28-0.4,2.58-0.72,4.55-1.26C564.59,705.76,572.1,725.95,579.93,746.98z"/>
		<path d="M105.49,387.42c4.99,0.84,8.48,1.57,12,2c11.49,1.4,23,2.71,34.51,4c2.99,0.34,4.21,1.52,3,4.62
			c-0.47,1.22-0.55,2.67-0.47,4c0.2,3.53-1.7,4.55-4.73,4.05c-20.68-3.47-41.37-6.96-62.02-10.61c-1.12-0.2-2.6-1.69-2.86-2.82
			c-0.92-4.07,3.53-10.59,7.69-11.44c15.06-3.05,30.15-5.99,45.22-9c0.47-0.09,0.9-0.43,2.08-1.03
			c-16.51-2.15-32.21-4.21-48.89-6.38c0.51-4.18,1.01-8.22,1.49-12.2c21.89,3.45,43.34,6.78,64.75,10.29
			c1.35,0.22,3.2,1.6,3.57,2.83c1.48,4.83-2.4,11.03-7.44,12.07C137.94,380.99,122.46,384.03,105.49,387.42z"/>
		<path d="M212.19,162.44c0.37-0.45,0.57-0.78,0.84-1.02c5.71-5.11,10.92-6.62,17.99-1.06c9.84,7.73,20.76,14.09,31.21,21.03
			c1.22,0.81,2.45,1.62,4.54,1.61c-2.48-3.24-4.94-6.5-7.46-9.72c-6.54-8.37-13.12-16.71-19.64-25.09
			c-2.06-2.64-2.11-5.44,1.39-6.42c2.71-0.76,4.46-7.25,8.37-1.81c12.71,17.72,25.38,35.47,38.32,53.57c-2.95,2.1-5.4,4.38-8.3,5.68
			c-1.48,0.66-4.09,0.1-5.62-0.84c-13.24-8.2-26.35-16.62-40.77-25.78c10.22,13.42,19.67,25.83,29.17,38.31
			c-0.69,0.9-1.07,1.57-1.62,2.07c-6.85,6.23-8.13,6.18-13.28-1.04C235.58,195.45,223.89,178.92,212.19,162.44z"/>
		<path d="M593.54,694.91c1.95-10.19,4.28-18.54,4.96-27.03c0.58-7.28,3.36-11.98,9.87-14.88c1.87-0.84,3.46-2.32,5.78-3.93
			c-2.11,11.23-3.67,21.87-6.28,32.25c-1.1,4.4,0.34,5.29,3.78,6.51c13.62,4.84,27.16,9.95,41.55,15.26
			c-4.62,2.87-8.53,5.53-12.68,7.71c-1.27,0.67-3.38,0.44-4.85-0.09c-8.54-3.05-16.98-6.36-25.5-9.48
			c-1.72-0.63-3.61-0.81-5.36-1.19c-6.39,12.94,7.62,18.02,9.42,27.53c-0.14,0.28-0.21,0.77-0.49,0.94
			c-9.85,5.94-9.91,5.97-16.44-3.83c-9.85-14.78-19.62-29.61-29.71-44.84c3.6-2.4,6.9-4.61,10.61-7.08
			C583.08,679.79,587.75,686.54,593.54,694.91z"/>
		<path d="M174.19,204.98c0.5-10.81,7.13-16.08,13.79-21c6.76-4.99,14.04-3.5,19.89,1.4c9.63,8.07,19.58,16.13,27.55,25.72
			c11.71,14.1,4.85,25.14-10.74,34.54c-4.75,2.86-9.46,2.1-14.15-0.56c-13.95-7.9-24.54-19.39-33.88-32.08
			C174.86,210.58,174.75,206.93,174.19,204.98z M194.65,192.2c-3.19,2.48-7.08,3.98-7.68,6.33c-0.8,3.12-0.22,7.99,1.83,10.2
			c7.75,8.39,15.99,16.42,24.73,23.76c5.41,4.54,10.09,3.53,13.74-1.01c3.45-4.29,2.87-8-2.31-13.27
			c-6.28-6.39-12.48-12.89-19.09-18.92C202.89,196.57,198.97,194.87,194.65,192.2z"/>
		<path d="M677.91,283.29c-12.61-0.64-25.71-16.75-22.18-28.42c1.21-3.98,4.13-8.14,7.45-10.65c9.72-7.31,19.58-14.66,30.23-20.44
			c12.09-6.57,19.55-3.2,27.11,7.6c7.66,10.94,6.86,20.12-3.38,28.14c-9.7,7.61-20.27,14.14-30.65,20.85
			C684.04,281.96,680.8,282.35,677.91,283.29z M674.07,271.55c3.44-0.86,5.66-0.83,7.11-1.87c10.29-7.43,20.65-14.81,30.48-22.82
			c3.45-2.8,3.15-7.53,0.12-11.05c-3.19-3.71-7.6-4.26-11.59-1.75c-10.11,6.36-20.27,12.72-29.72,19.99
			c-2.42,1.86-3.47,7.34-2.84,10.73C668.15,267.52,672.11,269.63,674.07,271.55z"/>
		<path d="M740.86,265.43c0.75,1.93,1.36,3.7,2.14,5.4c0.71,1.54,1.62,2.99,2.68,4.92c-8.88,4.34-17.51,8.56-27.42,13.41
			c2.53,0.46,3.7,0.81,4.88,0.86c8.9,0.4,17.82,0.68,26.72,1.18c1.34,0.08,3.25,0.72,3.83,1.72c1.8,3.09,3.09,6.47,4.85,10.33
			c-10.49-0.61-20.35-1.31-30.23-1.63c-2.07-0.07-4.92,0.66-6.18,2.1c-8.48,9.73-16.62,19.75-25.28,30.15
			c-2.32-4.46-4.33-8.34-6.37-12.26c6.43-7.64,12.71-15.11,19.46-23.12c-11.19-4.08-17.79,4.81-26.34,6.67
			c-0.23-0.15-0.69-0.27-0.86-0.56c-5.6-9.39-5.68-9.57,4.02-14.22c17.09-8.2,34.29-16.17,51.45-24.21
			C738.86,265.86,739.62,265.77,740.86,265.43z"/>
		<path d="M325.3,714.82c-9.95-2.64-10.81-3.54-12.05-12.36c-1-7.13-11.22-12.76-19.27-10.6c-11.94,3.2-22.01,22.57-17.83,34.31
			c3.56,9.99,16.1,13.2,24.29,6.46c1.33-1.09,4.05-1.34,5.82-0.86c2.73,0.74,5.2,2.45,7.8,3.76c-7.49,12.83-24.72,16.08-38.82,7.56
			c-12.42-7.51-16.84-22.19-10.68-38.19c4.52-11.75,11.86-21.53,24.81-24.89C310.64,674.47,329.76,692.91,325.3,714.82z"/>
		<path d="M617.41,221.21c-1.1-0.28-1.3-0.31-1.47-0.38c-14.59-6.01-7.21-17-5.98-26.56c0.39-3,1.03-5.97,1.7-9.74
			c-11.67,1.54-13.26,12.38-20.3,18.26c-2.92-1.92-6.22-4.1-9.83-6.47c13.53-18.74,26.94-37.3,40.68-56.31
			c3.33,2.39,6.56,4.7,10.18,7.3c-5.78,7.9-11.31,15.45-16.84,23c0.24,0.41,0.48,0.82,0.72,1.23c10.03-4.93,20.07-9.85,29.93-14.69
			c3.64,2.73,7,5.25,11.08,8.32c-9.35,4.24-17.94,8.43-26.78,12.02c-3.54,1.44-4.98,3.36-5.65,7.02
			C622.6,196.48,619.96,208.69,617.41,221.21z"/>
		<path d="M350.8,165.74c-3.3,1.19-6.7,2.42-10.93,3.94c-6.35-22.09-12.65-44.03-19.12-66.51c3.55-1.15,7.27-2.35,11.56-3.73
			c2.73,9.32,5.34,18.24,7.96,27.16c0.51-0.02,1.02-0.05,1.53-0.07c1.41-6.56,3.64-13.07,4.05-19.7
			c0.62-10.06,5.73-14.5,15.66-14.88c-2.35,9.12-4.91,18.34-6.98,27.66c-0.49,2.19-0.12,5.36,1.2,7.03
			c6.91,8.8,14.27,17.25,21.42,25.86c1.33,1.61,2.42,3.41,4.01,5.68c-3.73,1.04-6.94,2.44-10.22,2.65
			c-1.88,0.12-4.41-1.22-5.74-2.72c-4.87-5.47-9.35-11.29-14.01-16.95c-0.56-0.68-1.37-1.16-2.43-2.03
			C342.88,148.77,349.55,156.91,350.8,165.74z"/>
		<path d="M710.6,386.43c-1.04-4.63-1.92-8.53-2.92-12.94c4.03-1.85,8-3.79,12.06-5.52c3.04-1.29,4.2-3.14,2.98-6.41
			c-0.74-1.99-1.21-4.09-1.64-6.17c-0.65-3.1-2.13-4.58-5.62-4.3c-4.45,0.35-8.94,0.09-13.61,0.09c-1.3-3.98-2.53-7.74-3.89-11.92
			c1.26-0.33,2.12-0.74,2.99-0.76c21.41-0.37,42.82-0.65,64.22-1.08c3.46-0.07,5.73,0.74,5.84,4.62c0.01,0.19,0.02,0.39,0.07,0.58
			c3.36,12.3,3.25,12.07-8.37,17.65c-14.16,6.8-28.11,14.04-42.15,21.09C717.51,382.9,714.47,384.47,710.6,386.43z M762.29,348.47
			c-0.11-0.24-0.23-0.48-0.34-0.72c-10.59,0.88-21.19,1.76-32.25,2.67c0.79,3.16,1.12,5.67,2.1,7.9c0.45,1.02,2.54,2.36,3.26,2.06
			C744.21,356.57,753.24,352.49,762.29,348.47z"/>
		<path d="M422.8,153.11c-1.3-4.19-2.34-8.5-4.05-12.52c-0.68-1.6-2.78-3.4-4.42-3.61c-2.77-0.36-5.7,0.79-8.56,0.74
			c-3.92-0.07-4.3,2.56-4.64,5.29c-0.5,3.99-0.83,8.01-1.26,12.27c-4.24,0.57-8.13,1.1-13.12,1.78c1.5-9.62,2.91-18.29,4.18-26.98
			c1.95-13.36,3.76-26.73,5.76-40.08c0.2-1.36,1.14-3.66,1.86-3.71c5.03-0.36,10.09-0.34,15.13-0.16c0.67,0.02,1.56,1.57,1.87,2.56
			c6.29,19.86,12.52,39.75,18.71,59.64c0.43,1.39,0.44,2.92,0.7,4.79C430.59,153.11,426.78,153.11,422.8,153.11z M415.12,126.9
			c-2.77-10.32-5.37-20.03-7.97-29.73c-0.48,0.06-0.95,0.12-1.43,0.17c-0.79,9.81-1.57,19.62-2.37,29.56
			C407.47,126.9,410.7,126.9,415.12,126.9z"/>
		<path d="M151.44,305.9c8.97,4.33,17.32,8.36,26.21,12.66c-1.7,3.48-3.34,6.86-5.24,10.78c-20.88-9.7-41.36-19.22-62.92-29.24
			c4.82-9.28,8.83-18.83,14.47-27.3c4.25-6.38,13.91-6.52,22.39-2.12c11.65,6.05,14.75,15.3,9.08,27.15
			C154.26,300.25,153.04,302.65,151.44,305.9z M142.61,301.68c5.57-13.62,4.96-16.93-3.14-20.23c-7.19-2.93-11.13-0.06-15.32,11.61
			C130.13,295.86,136.17,298.68,142.61,301.68z"/>
		<path d="M174.53,263.67c6.23,4.14,11.99,7.93,17.73,11.77c6.56,4.39,6.56,4.41,2.05,11.11c-0.74,1.11-1.57,2.16-2.51,3.45
			c-19.12-13.01-38.18-25.97-57.27-38.96c4.77-6.76,9.39-13.39,14.09-19.98c8.06-11.31,19.16-9.03,28.17-1.81
			c8.69,6.96,9.8,16.36,3.7,25.8C178.81,257.64,176.98,260.14,174.53,263.67z M150.2,246.62c5.52,3.71,11.12,7.49,16.7,11.24
			c8.1-11.16,7.91-15.54-0.24-20.47C160.6,233.72,155.88,236.16,150.2,246.62z"/>
		<path d="M365.49,738.17c-3.81-0.89-7.31-1.71-10.82-2.53c2.75-9.88,10.79-14.77,21.59-12.51c2.07,0.43,4.17,0.72,6.22,1.23
			c11.11,2.77,14.76,9.07,12.29,20.14c-1.72,7.71-3.04,15.53-4.13,23.35c-0.35,2.49,0.6,5.17,1.09,8.79
			c-4.47-3.07-12.41,2.13-13.47-6.59c-5.38,0.72-10.63,2.05-15.86,1.97c-7.8-0.11-13.44-6.14-13.42-13.19
			c0.02-8.45,5.89-15.01,13.99-15.35c5.05-0.21,10.14,0.24,15.16-0.19c1.93-0.16,5-1.68,5.26-3.02c0.32-1.67-1.28-4.34-2.84-5.62
			C376.18,731.07,369.65,732.68,365.49,738.17z M381.01,750.75c-4.82,0.46-9.54,0.77-14.21,1.39c-4.01,0.53-6.09,3.53-4.84,6.96
			c0.84,2.3,3.85,4.85,6.28,5.34C375.8,765.98,380.48,760.94,381.01,750.75z"/>
		<path d="M461.68,762.55c4.44-0.95,6.68-1.77,8.93-1.81c1.89-0.03,4.27,0.28,5.6,1.42c3.99,3.42,11.62,4.9,15.98,2.09
			c1.6-1.03,3.07-3.16,3.35-4.98c0.14-0.88-2.5-2.91-4.1-3.19c-5.32-0.93-10.72-1.38-16.11-1.88c-7.79-0.72-13.16-4.96-14.26-11.43
			c-0.91-5.35,3.42-12.14,9.19-15.5c6.89-4.01,14.4-3.59,21.53-2.48c5.69,0.88,9.83,5.12,10.42,12.05
			c-5.12-0.17-9.88,3.29-14.79-2.28c-1.63-1.85-8.12,0.32-12.28,1.16c-0.92,0.18-2.33,3.17-1.93,3.71c1.17,1.59,3,3.36,4.81,3.67
			c4.75,0.83,9.65,0.72,14.44,1.34c10.08,1.3,14.14,4.43,15.24,11.35c1.08,6.72-2.36,13.16-10.72,16.75
			c-9.09,3.9-18.84,5.2-27.72-0.76C466.37,769.83,464.6,766.2,461.68,762.55z"/>
		<path d="M406.31,762.88c5.22,0.43,10.98-2.77,14.41,4.71c1.61,3.52,13.33,3.35,16.22,0.47c2.65-2.63,2.06-5.96-1.77-7.23
			c-4.72-1.56-9.67-2.44-14.5-3.68c-9.91-2.56-13.46-7.29-12.39-16.4c0.75-6.39,8.2-12.02,16.32-11.87
			c4.99,0.09,10.18,0.13,14.91,1.47c6.37,1.8,9.46,7.04,9.43,13.82c-4.86,0.05-9.55,1.38-13.39-3.98c-1.53-2.14-6.26-2.94-9.39-2.68
			c-2.17,0.18-4.12,3.2-6.16,4.96c1.82,1.38,3.44,3.31,5.49,4.03c5.24,1.84,10.76,2.85,15.98,4.71c5.66,2.01,9.32,5.47,9.21,12.44
			c-0.12,6.94-3.65,11.15-9.26,13.42c-9.38,3.79-18.96,3.38-27.98-1.55C408.04,772.57,406.95,770.29,406.31,762.88z"/>
		<path d="M636.8,240.4c-4.06-3.63-6.77-6.05-10.04-8.97c7.17-9.45,19.15-14.97,23.54-26.94c4.1-11.17,8.45-22.25,13.25-34.86
			c3.08,3.37,5.86,5.81,7.78,8.81c0.84,1.31,0.39,3.96-0.3,5.66c-2.96,7.28-6.23,14.43-9.72,22.39c6.82-2.77,13.19-5.33,19.54-7.94
			c8.11-3.33,11.51-2.16,16.94,5.97c-9.23,3.37-18.26,7.41-27.7,9.92c-10.02,2.67-17.93,7.94-24.59,15.51
			C642.56,233.29,639.79,236.79,636.8,240.4z"/>
		<path d="M501.86,92.2c4.02,0.6,7.73,1.15,12.05,1.79c-2.2,11.46-4.29,22.55-6.46,33.63c-1.29,6.59-2.81,13.13-4.03,19.72
			c-2.09,11.29-7.58,15.3-18.75,12.72c-4.14-0.96-8.85-2.36-11.76-5.16c-5.99-5.78-3.48-13.13-1.72-20.58
			c4.12,0.83,7.97,1.61,12.1,2.45c-0.74,2.82-2.02,5.12-1.71,7.19c0.33,2.22,1.66,5.22,3.44,6.1c2.93,1.45,5.8-0.11,6.49-3.69
			c3.02-15.65,5.93-31.32,8.89-46.97C500.83,97.16,501.31,94.93,501.86,92.2z"/>
		<path d="M780.21,388.62c0.56,4.21,1.06,7.95,1.59,11.99c-23.58,2.55-46.48,5.02-69.92,7.56c0-3.95,0-7.73,0-12.41
			C734.25,393.42,756.97,391.05,780.21,388.62z"/>
		<path d="M457.85,154.31c-2.14,0.1-3.68,0.21-5.22,0.23c-2.11,0.04-4.22,0.01-7.19,0.01c1.4-22.86,2.77-45.3,4.17-68.25
			c4.02,0,7.95,0,12.52,0C460.72,108.84,459.3,131.27,457.85,154.31z"/>
		<path d="M164.49,352.17c-21.71-6.9-43.17-13.72-65.65-20.86c1.48-4.04,2.94-7.99,4.26-11.6c19.07,6.08,37.29,12.2,55.72,17.65
			C169.83,340.61,170.07,340.38,164.49,352.17z"/>
		<path d="M525.67,169.69c-4.28-1.52-7.97-2.83-11.49-4.07c6.43-20.13,12.7-39.92,19.09-59.67c1.79-5.52,8.6-6.75,12.49-2.27
			c0.67,0.77,0.69,2.58,0.33,3.69c-5.5,16.86-11.13,33.67-16.7,50.5C528.14,161.66,526.99,165.47,525.67,169.69z"/>
		<path d="M343.19,698.36c2.13,0.41,3.7,0.55,5.15,1.03c2,0.67,3.9,1.61,6.17,2.57c-6.28,20.48-12.53,40.87-19.05,62.15
			c-3.69-1.01-7.44-2.05-11.79-3.24C330.26,739.75,336.67,719.23,343.19,698.36z"/>
		<path d="M696.82,593.06c7.67-1.5,14.2,1.76,15.77,7.87c1.51,5.9-2.35,13.74-7.62,15.46c-7.66,2.5-12.99-0.94-16.63-10.74
			c-6.25,0.71-11.71-2.32-13.19-7.32c-1.22-4.13,2.06-10.41,6.52-12.49C687.75,583.01,691.41,584.75,696.82,593.06z M700.08,596.43
			c-2.82,3.59-6.33,6.45-5.82,7.75c1.01,2.6,3.99,5.55,6.6,6.05c1.85,0.36,4.43-3.07,6.68-4.8
			C705.48,602.94,703.42,600.45,700.08,596.43z M693.74,595.79c-3.45-2.51-5.52-5.19-7.4-5.05c-1.87,0.14-4.52,2.89-4.93,4.89
			c-0.27,1.29,2.79,4.56,4.48,4.65C687.91,600.38,690.06,598.04,693.74,595.79z"/>
		<path d="M743.12,515.33c0.79-1.8,1.1-3.89,2.31-5.01c5.87-5.43,5.39-8.27-2.19-11.08c-0.68-0.25-1.37-0.45-2.69-0.88
			c1.91,6.19,1.01,11.16-4.61,14.22c-4.76,2.59-11.98,1.29-16.18-2.58c-3.64-3.36-4.64-7.18-3.08-12c2.06-6.36,7.15-8.52,12.67-7.9
			c6.59,0.74,13.28,2.52,19.39,5.11c6.1,2.6,7.69,8.53,5.44,14.74C752.49,514.66,749.33,516.34,743.12,515.33z M726.54,495.1
			c-1.66,2.14-4.68,4.28-4.7,6.43c-0.04,4.98,4.81,5.68,8.44,5.96c3.19,0.25,6.07-1.7,5.65-5.72
			C735.43,496.95,731.7,496.4,726.54,495.1z"/>
		<path d="M723.44,568.2c1.96-2.49,2.81-4.31,4.24-5.27c6.69-4.48,6.69-7.62-0.27-11.82c-0.63-0.38-1.35-0.62-2.54-1.15
			c-0.21,0.98-0.44,1.64-0.48,2.31c-0.44,7.78-4.48,12.63-10.58,11.48c-8.01-1.52-14.61-5.43-13.85-13.5
			c0.5-5.36,5.03-10.7,10.34-10.74c10.33-0.08,19.24,3.68,26.07,11.53c3.12,3.58,2.52,9.69-0.98,13.93
			C732.55,568.4,728.75,568.51,723.44,568.2z M715.68,557.39c1.06-1.17,3.56-2.82,4.35-5.08c1.05-3.01-3.91-7.6-8.16-7.05
			c-2.26,0.29-5.05,2.71-6.06,4.88C704.52,552.91,709.32,556.75,715.68,557.39z"/>
		<path d="M168.16,633.55c-0.8-3.49-1.31-5.72-1.83-7.94c-0.27,0.29-0.54,0.57-0.82,0.86c-2.5-3.12-6.64-6-7.13-9.4
			c-0.89-6.2,3.61-10.9,8.65-14.05c8.75-5.47,17.82-4.65,19.73,9.36c2.89-1.88,5.43-3.86,8.27-5.18c1.06-0.49,3.25,0.18,4.14,1.09
			c0.57,0.58,0.2,3.25-0.59,3.82C188.93,619.11,179.11,625.89,168.16,633.55z M175.76,607.22c-4.91,0-10.79,5.33-10.71,9.65
			c0.08,4.16,2.61,5.22,6.2,5.11c4.63-0.13,10.89-5.12,10.85-8.9C182.05,609,179.63,607.25,175.76,607.22z"/>
		<path d="M231.8,660.51c2.9-3.13,5.37-5.8,8.34-9.01c1.37,1.2,2.87,2.5,4.75,4.14c-8.79,9.71-17.31,19.12-25.33,27.99
			c-4.44-3-8.32-5.36-11.91-8.11c-4.03-3.08-4.99-10.24-1.15-15.39c2.78-3.73,6.78-7.07,10.96-9.09
			C223.02,648.35,226.83,651.17,231.8,660.51z M215.82,674.9c5.01-1.19,12.37-8.53,11.12-11.67c-1.02-2.57-3.93-5.26-6.57-6.07
			c-3.07-0.94-10.48,7.44-9.56,10.79C211.52,670.54,214.08,672.61,215.82,674.9z"/>
		<path d="M129.95,494.75c-2.41,0-4.47,0-6.76,0c-0.52-3.56-1.34-6.94-1.42-10.34c-0.09-4.06-2.32-4.4-5.39-3.92
			c-3.8,0.59-7.59,1.21-11.67,1.86c-1.52-4.62-1.33-6.91,4.6-7.54c10.45-1.11,20.77-3.45,32.12-5.44
			c1.59,8.36,3.14,16.54,4.73,24.93c-4.66,1.87-6.95,0.34-7.39-4.48c-0.21-2.29-0.97-4.57-0.93-6.85c0.06-3.62-1.56-4.61-4.95-4.71
			c-4.7-0.14-6.56,1-4.77,6.06C129.24,487.49,129.34,491.04,129.95,494.75z"/>
		<path d="M141.77,520.02c-0.02,8.1-6.38,13.28-16.29,13.28c-8.2,0-12.85-5.15-13.34-13.46c-0.5-8.45,8.18-13.73,17.8-14.19
			C136.61,505.34,141.79,512.07,141.77,520.02z M124.56,526.65c7.34,0.01,13.03-3.41,11.8-7.62c-0.81-2.75-4.39-5.91-7.26-6.58
			c-4.89-1.13-11.38,3.97-11.13,7.78C118.25,524.29,119.97,527.44,124.56,526.65z"/>
		<path d="M197.72,653.13c-7.66,3.96-13.03,1.52-15.92-5.39c-2.85-6.83,0.79-13.99,9.5-18.7c6.51-3.52,11.9-2.11,15.87,4.16
			c4.06,6.4,2.3,12.64-5.15,18.25c-2.88-3.06-5.71-6.19-8.67-9.17c-1.23-1.24-2.76-2.17-4.16-3.25c-0.99,1.59-2.95,3.33-2.73,4.73
			c0.3,1.91,1.94,3.98,3.57,5.23C192.32,650.74,195.14,651.79,197.72,653.13z M193.01,634.01c1.86,2.9,2.64,4.63,3.88,5.91
			c1.21,1.24,2.89,2.02,4.37,3c0.68-1.24,2.09-2.61,1.89-3.68c-0.34-1.84-1.28-4.25-2.71-5.02
			C198.8,633.34,196.34,634.01,193.01,634.01z"/>
		<path d="M156.77,558.59c-8.83,3.59-17.51,7.13-27.19,11.06c-0.36-3.03-0.62-5.26-1.01-8.6c0,0-1.12-0.72-2.09-1.6
			c-5.75-5.2-4.92-11.59,2.13-14.89c5.94-2.78,12.06-5.19,18.61-7.98c0.94,1.81,1.88,3.64,3.13,6.06
			c-5.49,2.15-10.62,4.2-15.79,6.17c-3.05,1.16-6.01,2.47-4.76,6.53c1.33,4.31,4.8,4.86,8.49,3.71c3.88-1.21,7.78-2.6,11.35-4.51
			C153.52,552.47,155.47,553.55,156.77,558.59z"/>
		<path d="M148.13,602.03c-1.34-1.98-2.38-3.51-3.75-5.54c5.07-2.65,9.76-4.84,14.16-7.49c2.54-1.53,6.4-2.63,4.37-7.28
			c-2.08-4.75-5.62-4.26-9.15-2.59c-4.85,2.3-9.47,5.09-14.42,7.79c-3.02-3.5-3.93-5.85,0.92-8.15c6.96-3.29,13.67-7.1,21.23-11.08
			c1.07,5.4,4.45,9.03,7.29,13.07c3.15,4.48,1.48,8.87-4.28,12.34C159.38,596.19,154.01,598.85,148.13,602.03z"/>
		<path d="M649.14,625.22c10.33,9.41,19.47,17.75,28.79,26.24c-1.35,3.83-2.97,6-6.85,2.34c-4.37-4.12-9.03-7.96-13.18-12.29
			c-2.82-2.95-4.85-3.15-7.52,0c-0.84,0.98-2.6,1.18-3.94,1.74c0.01-1.44-0.05-2.88,0.05-4.31c0.16-2.53,0.28-5.08,0.69-7.57
			C647.46,629.72,648.2,628.13,649.14,625.22z"/>
		<path class="st0" d="M497.95,567.08c-4.54-2.31-9.08-4.61-14.26-7.24c-6.56,15.38-12.82,30.07-19.32,45.3
			c-8.07-6.01-12.3-13.46-12.65-22.75c-0.37-9.93,0-19.89-0.19-29.83c-0.02-1.24-1.51-2.44-2.32-3.66
			c-0.91,0.74-2.63,1.51-2.61,2.22c0.38,13.56-0.67,27.44,1.93,40.59c2.93,14.88,20.14,25.75,35.44,26.12
			c17.29,0.42,32.5-5.76,47.34-13.63c22.16-11.75,40.36-28.62,58.75-45.23c2.27-2.05,4.12-4.56,6.44-6.55
			c4.81-4.12,3.15-8.99,0.89-13.07c-2.66-4.79-1.6-8.07,1.49-11.98c8.63-10.91,17.17-21.92,25.3-33.2c2.71-3.75,5.77-4.53,9.84-4.28
			c3.22,0.2,6.46,0.04,11.5,0.04c-4.85,15.03-8.6,29-13.85,42.39c-8.69,22.15-21.38,42.11-36.48,60.45
			c-22.84,27.74-50.88,48.56-83.83,63.06c-18.59,8.18-37.98,13.47-57.94,15.33c-15.4,1.44-31.13,0.3-46.64-0.73
			c-25.3-1.68-48.69-10.2-70.98-21.94c-23.37-12.31-44.22-28.03-61.98-47.56c-28.2-31.03-46.78-67.05-55.15-108.28
			c-0.82-4.04,0.36-4.51,3.78-4.92c8.39-1.03,13.97,1.56,18.53,9.31c6.15,10.46,13.83,20.04,21.1,29.82
			c2.62,3.53,3.96,6.92,1.59,10.91c-3.62,6.08-1.12,10.79,3.17,15.16c14.15,14.42,28.98,28,45.59,39.65
			c14.86,10.42,30.31,19.66,48.18,23.37c16.29,3.38,31.84,1.82,43.9-11.8c6.07-6.86,8.75-15.05,9.12-23.9
			c0.41-9.73,0.03-19.49,0.13-29.24c0.04-3.69-1.26-5.07-5.46-3.5c0,11.12,0.29,22.39-0.09,33.64c-0.32,9.42-4,17.39-12.67,23.69
			c-3.38-8.09-6.44-15.31-9.41-22.56c-2.56-6.27-4.87-12.66-7.65-18.83c-0.58-1.29-3.16-2.92-4.15-2.56
			c-4.65,1.69-9.06,4.03-13.55,6.13l0.1-0.1c-7.21,2.73-14.46,5.36-21.62,8.21c-8.24,3.28-16.38,6.82-24.64,10.06
			c-1.16,0.45-3.2,0.36-4.06-0.38c-12.16-10.52-24.22-21.15-36.17-31.91c-0.82-0.74-1.14-2.93-0.68-4.03
			c2.63-6.4,5.64-12.65,8.37-19.01c1.29-3.02,3.01-3.73,5.85-1.99c12.21,7.47,20.81,2.28,30.32-5.68
			c10.04-8.41,16.34-19.76,21.13-31.66c11.98-29.78,23.4-59.78,35.06-89.69c0.23-0.59,0.65-1.1,1.84-3.06
			c0.17,3.58,0.36,5.6,0.36,7.62c0.02,34.13-0.08,68.25,0.1,102.38c0.03,5.94,1.14,11.89,1.88,17.82c0.36,2.9,0.65,6.04,4.96,5.56
			c4.28-0.47,9.31,1.85,11.14-5.14c2.84-10.81,6.58-21.39,9.92-32.07c6.8-21.7,13.72-43.37,20.33-65.12
			c5.21-17.16,9.87-34.48,15.11-51.63c2.76-9.04,4.96-18.6,9.63-26.64c11.44-19.69,24.98-27.94,46.61-26.33
			c14.91,1.11,28.15,8.13,40.75,15.95c2.95,1.83,5.74,3.9,8.99,6.13c3.13-3.63,6.24-7.25,9.71-11.27c-2.44-1.97-4.47-4.11-6.93-5.53
			c-18.05-10.49-36.68-19.29-58.22-19.46c-19.81-0.15-34.68,8.84-46.33,24.28c-9.58,12.7-13.12,27.91-17.99,42.53
			c-8.68,26.02-16.95,52.17-25.53,78.21c-1.78,5.41-4.19,10.62-6.31,15.92c-0.57-0.08-1.14-0.15-1.71-0.23
			c-0.09-1.94-0.26-3.88-0.26-5.81c-0.02-39-0.04-78,0.03-117.01c0.01-3.92,0.1-7.68-4.94-8.35c-4.67-0.61-8.06,1.46-9.54,5.9
			c-7.93,23.8-15.48,47.73-23.71,71.42c-7.73,22.25-15.6,44.47-24.48,66.27c-4.21,10.34-11.02,19.59-20.78,25.98
			c-5.64,3.69-11.72,4.86-19.11,2.99c2.27-5.71,4.43-11.19,6.63-16.65c0.21-0.52,0.79-0.88,1.05-1.4c4.29-8.43,4.17-9.16-4.6-12.83
			c-32.13-13.44-64.33-26.74-96.49-40.12c-7.26-3.02-14.46-6.17-23.38-9.98c9.83-4.17,17.92-7.67,26.07-11.04
			c33.25-13.76,66.5-27.5,99.79-41.18c3.15-1.29,3.21-2.83,1.99-5.8c-9.22-22.3-18.22-44.7-27.31-67.05
			c-7.5-18.44-15.04-36.87-23-56.37c6.2,2.4,11.68,4.38,17.06,6.62c16.59,6.91,33.15,13.91,49.71,20.9
			c17.82,7.52,35.65,15.03,53.44,22.63c6.44,2.75,8.45,2,10.83-4.54c0.07-0.18,0.06-0.39,0.12-0.57
			c6.58-18.82,7.66-19.48,28.52-16.89c0,9.34,0,18.79,0,28.24c0.57,0.37,1.13,0.75,1.7,1.12c1.17-1.2,3.34-2.36,3.37-3.59
			c0.27-10.3,0.16-20.62,0.16-31.75c-2.57,0-4.65,0-6.72,0c-14.82,0-29.64-0.13-44.46,0.07c-4.86,0.07-7.55-1.9-7.66-6.59
			c-0.11-4.89,3.26-5.96,7.48-5.94c14.82,0.07,29.64,0.03,44.46,0.03c2.09,0,4.18,0,6.5,0c0.54-8.33,1.5-15.24-5.32-21.89
			c-7.94-7.74-9.03-18.44-4.24-28.66c4.79-10.21,13.38-16.17,24.65-16.97c12.94-0.91,24.57,7.07,28.62,20.06
			c3.27,10.5,1.25,22.28-9.14,30.33c-1.18,0.91-2.2,2.72-2.31,4.18c-0.31,4.26-0.11,8.55-0.11,13.58c2.35,0.13,4.39,0.35,6.43,0.35
			c14.82,0.03,29.64,0.06,44.46-0.01c4.26-0.02,8.23,0.58,8.25,5.83c0.02,5.03-3.08,6.81-8.11,6.73
			c-14.62-0.24-29.25-0.08-43.88-0.08c-2.1,0-4.2,0-7.12,0c0,11.21-0.11,21.87,0.18,32.52c0.03,1.05,2.52,2.04,5.21,4.06
			c0-11.5,0-20.97,0-31.03c6.94,0,13.33-0.15,19.7,0.13c1.26,0.06,3,1.56,3.56,2.82c2.27,5.14,4.07,10.49,6.25,15.67
			c0.87,2.06,2.28,3.88,3.48,5.85c42.58-17.47,84.57-34.69,127.83-52.44c-17.93,43.45-35.41,85.77-52.96,128.29
			c43.57,18.28,85.97,36.08,129.97,54.55c-11.57,4.75-21.47,8.87-31.4,12.89c-31.03,12.56-62.02,25.18-93.14,37.52
			c-5.3,2.1-4.73,5.01-2.96,8.95c2.83,6.31,5.57,12.66,8.3,18.88c-7.08,4.52-17.55,2.86-24.68-4.6
			c-10.83-11.33-21.22-23.1-31.51-34.93c-10.88-12.52-21.45-25.31-32.09-38.03c-2.58-3.08-4.93-6.35-7.66-9.88
			c7.77-6.53,14.96-12.68,22.28-18.68c14.62-11.97,29.22-23.95,44.02-35.69c4.05-3.21,2.62-6.29,0.19-8.77
			c-2.4-2.44-4.82-6.32-9.61-2.32c-14.55,12.16-29.39,23.97-44.15,35.88c-5.6,4.52-11.29,8.92-16.94,13.38
			c-0.49-0.32-0.97-0.63-1.46-0.95c0-15.47,0-30.93,0-46.85c-6.26,0-11.78,0-17.76,0c0,56.84,0,113.62,0,170.71
			c5.38,0,10.57,0,16.73,0c0-28.7,0-57.36,0-86.02c0.52-0.2,1.04-0.4,1.56-0.6c3.84,3.96,7.77,7.82,11.5,11.88
			c18.88,20.58,37.6,41.3,56.61,61.76c6.98,7.51,15.64,12.92,25.96,14.12c4.33,0.5,8.95-1.47,14.09-2.44
			c2.88,6.87,6.05,14.24,8.97,21.71c0.32,0.83-0.53,2.59-1.37,3.34c-11.4,10.15-22.81,20.29-34.48,30.13
			c-1.43,1.21-4.68,1.5-6.53,0.78c-13.6-5.3-27.05-10.99-40.57-16.49c-2.14-0.87-4.44-1.34-6.66-2L497.95,567.08z M448.4,220.61
			c-0.06-8.89-7.96-16.37-17.1-16.2c-7.94,0.15-16.83,8.87-16.75,16.43c0.08,8.02,9.01,16.52,17.26,16.41
			C440.97,237.14,448.46,229.63,448.4,220.61z"/>
		<path class="st0" d="M582.37,331.9c11.09-26.85,22.05-53.38,33.55-81.22c23.85,24.05,42.02,50.4,55.11,81.22
			C641.15,331.9,612.21,331.9,582.37,331.9z"/>
		<path class="st0" d="M563.75,376.86c5.29-13.13,10.46-26.23,15.96-39.2c0.61-1.45,3.07-3,4.67-3.01
			c28.22-0.18,56.43-0.13,86.45-0.13c-6.21,6.22-11.37,11.51-16.65,16.66c-11.54,11.26-23.22,22.37-34.69,33.7
			c-11.55,11.4-11.49,11.55-26.73,5.25c-9.28-3.83-18.47-7.89-27.69-11.87C564.75,378.12,564.54,377.72,563.75,376.86z"/>
		<path class="st0" d="M194,332.57c2.97-0.13,4.44-0.26,5.92-0.26c25.51-0.01,51.02,0.06,76.53-0.09c3.58-0.02,5.73,0.89,7.14,4.34
			c5.31,13.02,10.83,25.95,16.48,39.42c-11.07,4.66-22.08,8.13-31.84,13.75c-10.04,5.78-15.74,2.7-22.83-4.96
			c-15.07-16.28-31.21-31.56-46.9-47.26C197.27,336.3,196.17,334.97,194,332.57z"/>
		<path class="st0" d="M673.14,336.26c12.45,30.47,18.42,61.57,18.45,95.18c-3.89-1.64-6.83-2.89-9.77-4.13
			c-22.47-9.45-44.92-18.94-67.43-28.29c-3.52-1.46-3.65-2.51-0.89-5.17c9.82-9.46,19.35-19.24,29.09-28.79
			c9.17-8.98,18.46-17.83,27.72-26.72C670.96,337.7,671.78,337.24,673.14,336.26z"/>
		<path class="st0" d="M191.29,335.01c20.5,20.45,40.56,40.48,61.08,60.95c-26.4,10.9-52.9,21.84-80.58,33.27
			C172.62,395.73,178.39,364.57,191.29,335.01z"/>
		<path class="st0" d="M332.39,194.43c0,29.23,0,57.46,0,86.68c-27.63-11.47-54.11-22.47-81.52-33.86
			C275.57,224.31,302.23,206.94,332.39,194.43z"/>
		<path class="st0" d="M248.27,249.58c11.18,27.43,21.78,53.46,32.64,80.09c-29.36,0-57.9,0-87.52,0
			C206.31,299.41,224.96,273.89,248.27,249.58z"/>
		<path class="st0" d="M613.08,248.24c-26.76,11.08-52.66,21.8-79.31,32.84c0-28.84,0-56.83,0-85.46
			C563.63,207.94,589.37,225.54,613.08,248.24z"/>
		<path class="st0" d="M608.62,468.78c28.59-11.5,55.3-22.23,82.98-33.36c-0.48,33.51-6.69,64.59-20.08,95.59
			c-8.5-8.72-16.06-16.3-23.35-24.12c-0.99-1.06-1.16-3.43-0.87-5.05c0.98-5.59,2.32-11.11,3.69-17.41c-5.41,0-9.91-0.46-14.27,0.1
			c-8.15,1.05-14.23-1.77-19.29-8.05C615.28,473.83,612.25,471.9,608.62,468.78z"/>
		<path class="st0" d="M171.82,432.99c26.97,11.31,53.06,22.25,79.14,33.19c-3.49,8.61-14.17,16.05-22.81,16.05
			c-5.23,0-10.46,0-16.89,0c1.11,6.18,2.22,11.71,3.03,17.28c0.26,1.75,0.43,4.28-0.55,5.32c-7.46,7.86-15.23,15.44-23.45,23.67
			C177.81,497.72,171.74,466.67,171.82,432.99z"/>
		<path class="st0" d="M526.69,192.66c-20.01,20.31-39.87,40.49-59.84,60.76c-1.73-3.72-3.86-7.83-5.51-12.13
			c-0.54-1.42-0.37-3.62,0.38-4.95c9.52-16.77,1.91-39.23-16.65-46.99c-7.8-3.26-8.95-5.29-10.42-14.94
			C467.08,175.08,498.17,181.08,526.69,192.66z"/>
		<path class="st0" d="M430.18,174.39c-3.34,6.77-4.06,12.3-11.61,15.24c-16.37,6.38-25.79,24.72-18.04,42.3
			c2.08,4.72,2.73,9-0.5,13.54c-1.41,1.98-1.88,4.62-2.36,5.88c-19.51-19.5-39.36-39.35-59.34-59.33
			C366.46,181.02,396.99,174.8,430.18,174.39z"/>
		<path class="st0" d="M473.02,255.05c19.48-19.47,38.57-38.55,57.8-57.78c0.06,0.98,0.2,2.25,0.2,3.51
			c0.01,25.16-0.05,50.31,0.08,75.47c0.02,4-0.98,6.25-5.09,7.81c-11.2,4.27-22.24,9.01-33.2,13.87c-4.89,2.16-7.59,1.79-9.2-3.99
			c-1.43-5.14-4.12-9.93-6.55-15.53c8.09,0,15.11,0.15,22.11-0.04c6.21-0.17,10.6-3.82,12.3-9.44c1.63-5.37-0.82-9.2-4.85-11.99
			c-1.89-1.31-4.68-1.75-7.09-1.81C490.65,254.93,481.75,255.05,473.02,255.05z"/>
		<path class="st0" d="M336,197.69c18.96,18.98,37.99,38.04,57.28,57.36c-9.7,0-19.54-0.01-29.38,0.01
			c-6.61,0.01-12.8,4.9-12.82,10.08c-0.03,6.17,5.54,11.85,12.44,12.1c7.52,0.27,15.07,0.06,23.25,0.06
			c-3.37,7.87-6.45,15.05-9.69,22.59c-13.51-5.75-26.51-11.14-39.33-16.92c-1.57-0.71-3.13-3.45-3.15-5.26
			c-0.22-20.85-0.25-41.69-0.07-62.54C334.58,209.23,335.51,203.28,336,197.69z"/>
		<path class="st0" d="M191.73,532.25c11.28,0,21-0.08,30.71,0.1c1.1,0.02,2.73,1.24,3.19,2.3c7.5,17.52,16.13,34.38,27.81,49.57
			c0.85,1.1,1.63,3.11,1.19,4.21c-2.89,7.33-6.12,14.52-9.71,22.87C221.56,588.38,204.58,562.47,191.73,532.25z"/>
		<path class="st0" d="M670.08,534.32c-13.15,30.15-31.26,55.36-54.2,78.92c-3.72-8.39-7.12-16.05-10.47-23.6
			c7.58-12.25,15.3-24.44,22.69-36.83c2.55-4.28,4.48-8.98,6.33-13.63c1.4-3.53,3.43-5.07,7.39-4.95
			C650.92,534.5,660.05,534.32,670.08,534.32z"/>
		<path class="st0" d="M497.85,566.99c8.28,3.9,16.42,8.17,24.91,11.54c4.11,1.63,5.63,3.29,6.31,7.96
			c1.69,11.61-3.81,15.89-13.96,19.52c-12.83,4.58-25.32,8-38.91,5.31c-1.13-0.22-2.26-0.54-3.32-0.98
			c-6.93-2.87-6.97-2.98-3.97-10.03c4.81-11.31,9.51-22.67,14.63-33.84c0.56-1.21,3.63-1.96,5.41-1.77c3.05,0.32,6.01,1.56,9,2.39
			C497.95,567.08,497.85,566.99,497.85,566.99z"/>
		<path class="st0" d="M360.76,567.01c4.66-1.15,9.32-2.3,14.89-3.67c2.48,5.54,5.35,11.74,8.04,18.02
			c2.96,6.91,5.73,13.91,8.64,20.84c1.32,3.14,1.23,4.85-2.64,6.58c-14.4,6.42-28.03,2.9-41.63-2.24
			c-4.47-1.69-8.83-3.76-13.01-6.08c-1.33-0.74-1.92-2.83-2.82-4.31c-0.09-0.14-0.01-0.38-0.01-0.58
			c-0.57-16.39-0.54-16.32,18.64-23.43c3.49-1.29,6.65-3.45,9.98-5.21C360.86,566.91,360.76,567.01,360.76,567.01z"/>
		<path class="st0" d="M297.98,486.57c-2.94,7.27-5.69,14.05-8.41,20.84c-1.33,3.31-3.39,4.67-6.77,2.66
			c-2.32-1.38-4.48-3.13-6.96-4.12c-1.7-0.68-4.54-1.16-5.55-0.26c-1.08,0.97-1.52,4.27-0.68,5.5c3.35,4.91,7.31,9.4,11.87,15.08
			c-1.15,1.17-2.64,3.71-4.82,4.66c-3.6,1.57-6.05-1.05-8.05-3.86c-9.39-13.25-18.89-26.42-28.06-39.81
			c-0.9-1.32,0.13-3.98,0.35-6.02c0.03-0.3,0.53-0.55,0.8-0.83c12.33-12.92,12.32-12.9,29.43-5.8c7.32,3.04,14.72,5.91,22.03,8.99
			C294.88,484.32,296.37,485.56,297.98,486.57z"/>
		<path class="st0" d="M573.3,511.04c-3.15-7.73-6.3-15.45-9.74-23.89c10.76-4.42,21.75-8.1,31.93-13.36
			c8.77-4.54,14.31-3.66,20.81,4.22c8.41,10.2,8.1,6.48,0.85,16.74c-8.01,11.33-16.83,22.09-24.94,33.35
			c-2.67,3.72-6.22,3.76-9.24,2.68c-4.71-1.69-1.71-4.85-0.32-7.5c2.94-5.59,6.04-11.12,8.57-16.9c0.78-1.79-0.05-4.29-0.15-6.47
			c-2.41,0.66-5.43,0.63-7.1,2.12c-3.27,2.92-5.78,6.68-8.61,10.1C574.68,511.78,573.99,511.41,573.3,511.04z"/>
		<path class="st0" d="M248.81,613.61c6.44-2.62,12.42-5.27,18.59-7.39c1.46-0.5,4.14,0.22,5.25,1.36
			c15.98,16.53,33.98,30.38,53.88,41.86c1.73,1,3.05,3.84,3.33,5.98c0.52,4.07,0.15,8.26,0.15,12.62
			C311.29,664.33,255.84,627.53,248.81,613.61z"/>
		<path class="st0" d="M590.71,606.65c7.08,3.02,14.18,6.05,21.31,9.1c-6.47,12.57-62.23,49.25-80.95,53.26
			c0-4.91-0.15-9.72,0.1-14.51c0.06-1.21,1.13-2.85,2.21-3.46c20.76-11.67,39.33-26.13,55.78-43.33
			C589.55,607.31,590.1,607.07,590.71,606.65z"/>
		<path class="st0" d="M527.69,670.36c-18.52,10.62-70.18,20.83-95.31,18.77c4.4-12.71,2.12-11.61,14.15-12.12
			c22.41-0.97,43.71-7.02,64.44-15.09c4.13-1.61,6.55-1.84,9.37,1.68C522.24,665.98,524.84,667.79,527.69,670.36z"/>
		<path class="st0" d="M427.81,689.49c-33.07-0.33-63.69-6.69-94.58-19c4.03-4.12,7.35-7.76,11.02-11.02
			c0.66-0.59,2.87,0.18,4.17,0.76c22.03,9.9,45.01,16.1,69.21,16.65C426.27,677.08,425.09,683.54,427.81,689.49z"/>
		<path class="st0" d="M645.89,508.84c7.88,7.98,15.25,15.44,22.63,22.92c-9.78,0-19.97,0-30.59,0
			C640.6,524.09,643.21,516.56,645.89,508.84z"/>
		<path class="st0" d="M216.35,507.99c2.24,6.64,4.68,13.88,7.3,21.63c-10.29,0-19.95,0-29.94,0
			C201.28,522.38,208.79,515.21,216.35,507.99z"/>
		<path class="st0" d="M591.49,604.75c4.45-5.04,7.99-9.05,12.29-13.92c3.41,7.8,6.43,14.74,9.46,21.67
			c-0.28,0.39-0.56,0.78-0.85,1.17C605.66,610.8,598.92,607.93,591.49,604.75z"/>
		<path class="st0" d="M247.36,611.85c3.3-8.1,6.02-14.78,9.17-22.53c4.06,4.5,7.56,8.22,10.79,12.16c0.35,0.43-0.55,2.79-1.35,3.13
			C260.34,607,254.58,609.09,247.36,611.85z"/>
		<path class="st0" d="M329.66,580.89c0,5.85,0,10.58,0,16.44c-5.2-3.22-9.75-6.05-15.66-9.71
			C319.87,585.1,324.43,583.14,329.66,580.89z"/>
		<path class="st0" d="M546.89,588.61c-6.1,3.68-10.25,6.18-15.3,9.23c0-5.62,0-10.08,0-15.47
			C536.36,584.31,540.88,586.16,546.89,588.61z"/>
		<path class="st0" d="M398.68,254.62c1.81-4.63,3.4-8.68,5.08-12.99c5.51,2.98,8.06,6.74,6.27,12.99
			C406.64,254.62,403.05,254.62,398.68,254.62z"/>
		<path class="st0" d="M465.08,254.83c-4.59,0-8.04,0-11.67,0c-2.08-5.75,0.1-9.7,5.64-13.2
			C460.95,245.78,462.79,249.81,465.08,254.83z"/>
		<path class="st0" d="M589.27,550.35c-2.14-5.52-4.19-10.81-6.47-16.67c3.51-0.43,7.16-1.51,8.09,2.95
			C591.79,540.93,597.64,545.92,589.27,550.35z"/>
		<path class="st0" d="M331.5,652.53c3.68,1.75,6.76,3.21,10.24,4.86c-3.61,3.17-6.9,6.06-10.24,8.99
			C331.5,662.34,331.5,657.86,331.5,652.53z"/>
		<path class="st0" d="M271.34,549.38c-5.77-4.86-2.71-9.52-1.12-13.66c0.59-1.53,3.63-2.11,5.55-3.13
			c0.55,0.47,1.11,0.95,1.66,1.42C275.46,538.99,273.49,543.95,271.34,549.38z"/>
		<path class="st0" d="M519.31,658.4c2.76-1.37,5.52-2.74,9.12-4.52c0,5.5,0,9.65,0,15.72C525.01,665.41,522.47,662.28,519.31,658.4
			z"/>
		<path class="st0" d="M429.72,688.07c-1.71-4.27-2.62-6.54-4.15-10.37c3.24,0.37,5.52,0.62,7.79,0.88
			C432.34,681.25,431.32,683.92,429.72,688.07z"/>
		<path class="st0" d="M427.89,185.94c1.21-3.11,2.26-5.8,3.92-10.07c1.73,4.25,2.82,6.92,4.1,10.07
			C432.93,185.94,430.7,185.94,427.89,185.94z"/>
		<path class="st0" d="M194.65,192.2c4.32,2.68,8.24,4.38,11.23,7.1c6.62,6.03,12.81,12.53,19.09,18.92
			c5.18,5.27,5.76,8.98,2.31,13.27c-3.66,4.54-8.33,5.56-13.74,1.01c-8.75-7.34-16.98-15.37-24.73-23.76
			c-2.05-2.21-2.63-7.08-1.83-10.2C187.57,196.18,191.46,194.67,194.65,192.2z"/>
		<path class="st0" d="M674.07,271.55c-1.96-1.93-5.92-4.03-6.43-6.78c-0.63-3.39,0.43-8.87,2.84-10.73
			c9.44-7.27,19.61-13.63,29.72-19.99c3.99-2.51,8.4-1.96,11.59,1.75c3.02,3.52,3.32,8.25-0.12,11.05
			c-9.84,8.01-20.19,15.39-30.48,22.82C679.74,270.73,677.51,270.69,674.07,271.55z"/>
		<path class="st0" d="M762.29,348.47c-9.06,4.01-18.08,8.1-27.23,11.91c-0.72,0.3-2.81-1.04-3.26-2.06
			c-0.98-2.23-1.31-4.74-2.1-7.9c11.06-0.92,21.65-1.79,32.25-2.67C762.07,347.99,762.18,348.23,762.29,348.47z"/>
		<path class="st0" d="M415.12,126.9c-4.42,0-7.65,0-11.78,0c0.8-9.94,1.58-19.75,2.37-29.56c0.48-0.06,0.95-0.12,1.43-0.17
			C409.75,106.87,412.35,116.58,415.12,126.9z"/>
		<path class="st0" d="M142.61,301.68c-6.43-3-12.47-5.82-18.47-8.62c4.2-11.67,8.13-14.54,15.32-11.61
			C147.56,284.76,148.18,288.06,142.61,301.68z"/>
		<path class="st0" d="M150.2,246.62c5.68-10.46,10.4-12.9,16.46-9.24c8.16,4.93,8.34,9.31,0.24,20.47
			C161.32,254.1,155.72,250.33,150.2,246.62z"/>
		<path class="st0" d="M381.01,750.75c-0.53,10.19-5.21,15.23-12.77,13.7c-2.43-0.49-5.44-3.04-6.28-5.34
			c-1.25-3.43,0.83-6.43,4.84-6.96C371.48,751.52,376.19,751.21,381.01,750.75z"/>
		<path class="st0" d="M700.08,596.43c3.34,4.02,5.4,6.51,7.46,9c-2.25,1.74-4.83,5.16-6.68,4.8c-2.61-0.5-5.59-3.45-6.6-6.05
			C693.76,602.88,697.26,600.02,700.08,596.43z"/>
		<path class="st0" d="M693.74,595.79c-3.67,2.25-5.82,4.59-7.84,4.49c-1.69-0.09-4.75-3.35-4.48-4.65c0.42-2,3.06-4.75,4.93-4.89
			C688.21,590.6,690.29,593.28,693.74,595.79z"/>
		<path class="st0" d="M726.54,495.1c5.17,1.3,8.89,1.85,9.39,6.68c0.42,4.02-2.46,5.97-5.65,5.72c-3.63-0.28-8.49-0.98-8.44-5.96
			C721.86,499.37,724.88,497.24,726.54,495.1z"/>
		<path class="st0" d="M715.68,557.39c-6.35-0.64-11.16-4.48-9.87-7.24c1.01-2.17,3.8-4.59,6.06-4.88c4.25-0.55,9.2,4.04,8.16,7.05
			C719.24,554.57,716.73,556.22,715.68,557.39z"/>
		<path class="st0" d="M175.76,607.22c3.88,0.04,6.3,1.79,6.34,5.86c0.04,3.78-6.22,8.77-10.85,8.9c-3.59,0.1-6.12-0.96-6.2-5.11
			C164.97,612.55,170.85,607.22,175.76,607.22z"/>
		<path class="st0" d="M215.82,674.9c-1.74-2.3-4.3-4.37-5.01-6.95c-0.92-3.35,6.49-11.73,9.56-10.79c2.64,0.81,5.55,3.51,6.57,6.07
			C228.19,666.38,220.82,673.72,215.82,674.9z"/>
		<path class="st0" d="M124.56,526.65c-4.6,0.79-6.31-2.35-6.59-6.41c-0.26-3.81,6.24-8.91,11.13-7.78
			c2.87,0.66,6.45,3.82,7.26,6.58C137.59,523.24,131.9,526.66,124.56,526.65z"/>
		<path class="st0" d="M193.01,634.01c3.34,0,5.79-0.67,7.42,0.2c1.44,0.77,2.37,3.18,2.71,5.02c0.2,1.07-1.21,2.45-1.89,3.68
			c-1.47-0.98-3.16-1.76-4.37-3C195.64,638.64,194.86,636.91,193.01,634.01z"/>
		<path d="M448.4,220.61c0.06,9.03-7.42,16.54-16.59,16.65c-8.25,0.1-17.18-8.39-17.26-16.41c-0.07-7.56,8.81-16.28,16.75-16.43
			C440.44,204.23,448.33,211.72,448.4,220.61z M443.28,221.23c-0.01-5.64-5.91-11.56-11.61-11.66c-5.29-0.09-11.68,6.26-11.68,11.61
			c0,4.62,7.4,11.86,11.88,11.62C436.76,232.54,443.29,225.92,443.28,221.23z"/>
		<path class="st0" d="M443.28,221.23c0.01,4.69-6.52,11.31-11.41,11.57c-4.48,0.24-11.88-7-11.88-11.62
			c0.01-5.35,6.39-11.69,11.68-11.61C437.37,209.67,443.27,215.59,443.28,221.23z"/>
	</g>
</g>
</svg>
